<?xml version="1.0" encoding="UTF-8" standalone="no"?>
<!-- Created with Inkscape (http://www.inkscape.org/) -->

<svg
   width="89.283234mm"
   height="39.285767mm"
   viewBox="0 0 89.283234 39.285767"
   version="1.1"
   id="svg1"
   inkscape:version="1.3.2 (091e20e, 2023-11-25, custom)"
   sodipodi:docname="friday.svg"
   xmlns:inkscape="http://www.inkscape.org/namespaces/inkscape"
   xmlns:sodipodi="http://sodipodi.sourceforge.net/DTD/sodipodi-0.dtd"
   xmlns="http://www.w3.org/2000/svg"
   xmlns:svg="http://www.w3.org/2000/svg">
  <sodipodi:namedview
     id="namedview1"
     pagecolor="#ffffff"
     bordercolor="#999999"
     borderopacity="1"
     inkscape:showpageshadow="2"
     inkscape:pageopacity="0"
     inkscape:pagecheckerboard="0"
     inkscape:deskcolor="#d1d1d1"
     inkscape:document-units="mm"
     inkscape:zoom="1.0449705"
     inkscape:cx="155.02829"
     inkscape:cy="196.65626"
     inkscape:window-width="1350"
     inkscape:window-height="1237"
     inkscape:window-x="1915"
     inkscape:window-y="139"
     inkscape:window-maximized="0"
     inkscape:current-layer="layer1" />
  <defs
     id="defs1" />
  <g
     inkscape:label="Layer 1"
     inkscape:groupmode="layer"
     id="layer1"
     transform="translate(-53.59142,-87.260679)">
    <text
       xml:space="preserve"
       style="font-weight:bold;font-size:11.2889px;font-family:Sans;-inkscape-font-specification:'Sans, Bold';fill:#000000;fill-opacity:1;stroke-width:1.323;stroke-linecap:round;stroke-linejoin:round"
       x="69.375954"
       y="73.933502"
       id="text2"><tspan
         sodipodi:role="line"
         id="tspan1"
         style="fill:#000000;fill-opacity:1;stroke-width:1.323"
         x="69.375954"
         y="73.933502" /></text>
    <path
       d="m 76.024718,82.680023 c -0.12097,0.04963 -0.409683,0 -0.409683,0 -0.259061,0 -0.561417,-0.151734 -0.955926,-0.242775 -0.384394,-0.09104 -0.799135,-0.136561 -1.244222,-0.136561 -1.072256,0 -1.800581,0.192197 -2.184975,0.57659 -0.374278,0.384394 -0.561417,1.127893 -0.561417,2.230496 0,0 -0.04109,0.104373 0,0.136561 0.994243,0.778754 3.223972,-0.778754 4.218215,0 1.50749,1.180761 1.772261,4.081406 0,5.009546 -1.210258,0.633817 -1.071766,-2.859679 -4.036134,-1.307228 -2.964368,1.552451 3.185358,9.657722 0,13.337448 -1.303623,1.50595 -4.585495,3.07981 -6.473922,2.02026 -5.32031,-2.98509 5.518343,-11.640852 1.011485,-15.357708 -0.536393,-0.442369 -1.748695,0.4001 -2.33671,0 -1.638261,-1.114712 -2.686516,-4.072595 -0.910337,-5.049159 1.002434,-0.55115 2.19776,1.841605 3.247047,1.346841 0.1715,-0.08087 0,-0.470377 0,-0.470377 0,-2.083819 0.551301,-3.646683 1.653904,-4.688592 1.112719,-1.041909 2.791912,-1.562864 5.037581,-1.562864 0.80925,0 1.542633,0.03035 2.200149,0.09104 0.657515,0.05058 4.121897,0.715584 4.627678,0.806622 1.54015,0.277219 -1.387814,2.646528 -2.882733,3.25986 z m 14.429939,7.768799 c -0.114445,0.08964 -0.48555,0 -0.48555,0 -0.23266,-0.08093 -0.606938,-0.141618 -1.122835,-0.182081 -0.515897,-0.04046 -0.945811,-0.06069 -1.289742,-0.06069 -0.778903,0 -1.466766,0.05058 -2.063587,0.151735 -0.596822,0.101156 -2.011567,-0.07133 -1.927027,0.515897 0,0 5.306903,8.618762 1.517228,10.538927 -2.138764,1.08368 -5.360503,-1.29643 -6.575071,-3.050193 -2.487253,-3.591439 -2.177641,-8.816934 0.657466,-12.246598 1.20884,-1.462349 4.272212,-3.464265 5.968179,-2.337165 1.348282,0.896037 -3.038794,3.200765 -1.567802,3.969297 1.133379,0.592143 2.250727,-1.714599 3.140902,-2.048414 0.890175,-0.343931 1.70954,-0.515897 2.458096,-0.515897 0.192197,0 0.435272,0.0049 0.652458,0.01517 0.212922,0.01007 0.637285,-0.09852 0.637285,0.04552 0,0 1.566154,3.977781 0,5.204492 z m 8.557819,11.835278 c -1.252146,1.79548 -7.212188,0.8233 -7.687705,-1.18839 -0.946267,-4.003221 0.642859,-8.991751 1.820674,-13.672663 0.493026,-1.959402 6.685373,-3.158213 6.726793,-2.852133 1.287732,9.515963 2.579792,12.781141 -0.859762,17.713186 z m 0.45518,-19.625968 c -2.350097,1.189723 -7.474963,1.370036 -8.345194,-0.713033 -0.454837,-1.088742 1.941265,-1.788509 3.236753,-2.320153 2.083054,-0.854847 5.29256,-2.588026 6.878535,-1.228002 1.28611,1.102876 -0.16849,3.450387 -1.770094,4.261188 z M 122.5615,103.31404 c -0.75801,1.8388 -5.70124,0.4528 -7.2831,-1.02994 -0.48445,-0.45409 0,-1.77529 0,-1.77529 0,-1.064891 -1.82081,1.33526 -2.64018,1.69943 -0.81937,0.36416 -1.76518,0.54624 -2.83743,0.54624 -2.07371,0 -3.73267,-0.79913 -4.97689,-2.3974 -1.24422,-1.598271 -1.86633,-3.7529 -1.86633,-6.463887 0,-1.446535 0.20446,-2.726828 0.62211,-3.83888 0.42195,-1.123505 1.00266,-2.083135 1.72977,-2.882953 0.68908,-0.757991 1.5224,-1.345378 2.50362,-1.760119 0.98121,-0.424856 1.96243,-0.637284 2.94364,-0.637284 1.02168,0 1.85622,0.111272 2.50362,0.333816 0.65751,0.212428 1.3302,0.48555 2.01807,0.819365 0,0 -4.71407,-5.078962 -2.83216,-7.054838 1.28045,-1.344378 6.42334,0.07923 6.42334,0.07923 -0.94145,-0.01161 6.05839,18.621894 3.69192,24.36251 z m -7.2831,-5.733702 v -8.360564 c 0,-0.341824 -0.78902,-0.27818 -1.21388,-0.348989 -0.42485,-0.07081 -0.8143,-0.106214 -1.16835,-0.106214 -1.43642,0 -2.51082,0.451574 -3.23194,1.350436 -0.7153,0.89161 -1.04546,2.447051 -1.07732,3.717492 -0.031,1.234462 0.28545,2.884286 0.86489,3.641625 0.57375,0.749896 1.74382,1.017432 2.77674,1.122834 0.53418,0.05451 1.02167,-0.09104 1.57803,-0.273122 0.55636,-0.192197 1.47183,-0.293127 1.47183,-0.743498 z m 20.93934,0.257948 c 1.33415,-0.741944 1.61838,-3.62981 1.61838,-3.62981 l -4.01578,0.337174 c -0.85983,0.101157 -1.51228,0.222544 -1.95737,0.364163 -0.54625,0.171965 -0.96605,0.424856 -1.2594,0.758672 -0.28324,0.3237 -0.42486,0.753614 -0.42486,1.289742 0,0.354047 0.0303,0.642342 0.091,0.864886 0.0607,0.222544 0.2124,0.434972 0.45521,0.637284 0.23266,0.202313 0.51084,0.354047 0.83454,0.455203 0.3237,0.09104 0.82948,0.136561 1.51734,0.136561 0.54625,0 1.09755,-0.111272 1.6539,-0.333815 0.56648,-0.222544 1.06215,-0.515897 1.487,-0.88006 0,0 3e-5,6e-6 4e-5,0 z m 0,2.640174 c -0.29335,0.22255 -0.65752,0.49061 -1.09249,0.8042 -0.43497,0.31358 -0.84465,0.56141 -1.22904,0.74349 -0.53613,0.24278 -1.09249,0.41981 -1.66908,0.53108 -0.57659,0.12139 -1.20882,0.18208 -1.89668,0.18208 -1.6185,0 -2.97399,-0.50072 -4.06648,-1.50217 -1.09249,-1.00145 -1.63873,-2.281077 -1.63873,-3.838883 0,-1.244222 0.27818,-2.260842 0.83453,-3.049861 0.55636,-0.789019 1.34538,-1.41113 2.36706,-1.866333 1.01156,-0.455203 2.2659,-0.778903 3.76301,-0.9711 1.49711,-0.192197 3.04986,-0.333815 4.65825,-0.424856 0,0 0.008,-0.06141 0,-0.09104 -0.19684,-0.697141 -0.38439,-1.588153 -1.15318,-1.9422 -0.76879,-0.364162 -1.90174,-0.546243 -3.39885,-0.546243 -0.90029,0 -1.86128,0.16185 -2.88296,0.48555 -1.02167,0.313584 -1.75505,0.556359 -2.20014,0.728324 0,0 -1.49714,1.342755 -2.22025,0.990324 -2.62127,-1.27756 -2.17805,-6.118664 0.55631,-7.241425 1.37072,-0.562834 2.6755,2.087633 3.9703,1.885321 1.30491,-0.212428 2.60983,-0.595933 3.91475,-0.595933 3.10549,0 5.3461,0.480492 6.72183,1.441476 1.38584,0.950869 2.98309,4.987284 0.40981,5.323209 -0.11478,0.01498 4.0253,7.948934 4.75398,10.80024 0.59152,2.31463 -6.60279,2.99372 -8.85597,1.42607 -1.04458,-0.72677 0.71299,-3.54365 0.35402,-3.27132 z M 154.35,96.260249 c 0,0 -2.60793,-12.170058 2.87291,-12.838111 2.40668,-0.293347 3.13825,3.172844 3.38891,5.070459 1.01335,7.671539 -2.84248,14.926373 -8.05214,22.261293 -1.59609,2.2472 -7.48767,-2.58098 -7.33372,-5.14969 0.11545,-1.92641 5.93762,-3.44148 5.93762,-3.44148 0,0 -11.90152,-12.704456 -6.63079,-16.918386 1.37884,-1.102378 4.262,0.20021 5.68499,1.267615 3.15703,2.368141 4.13222,9.7483 4.13222,9.7483 z"
       id="text3"
       style="font-weight:bold;font-size:31.0752px;font-family:Sans;-inkscape-font-specification:'Sans, Bold';fill:#f9f9f9;stroke:#000000;stroke-width:1.323;stroke-linecap:round;stroke-linejoin:round"
       transform="scale(0.88502162,1.1299159)"
       aria-label="friday"
       sodipodi:nodetypes="sscscsssszsassssscscssscssssasssacsassssssssssssssssssssscsccssssssssasacssccccssccscssssccsssscscacsccsacscsssscsssacaac" />
  </g>
</svg>
