<?xml version="1.0" encoding="UTF-8" standalone="no"?>
<!-- Created with Inkscape (http://www.inkscape.org/) -->

<svg
   width="100.87423mm"
   height="41.059757mm"
   viewBox="0 0 100.87423 41.059758"
   version="1.1"
   id="svg1"
   inkscape:version="1.3.2 (091e20e, 2023-11-25, custom)"
   sodipodi:docname="friday.svg"
   xmlns:inkscape="http://www.inkscape.org/namespaces/inkscape"
   xmlns:sodipodi="http://sodipodi.sourceforge.net/DTD/sodipodi-0.dtd"
   xmlns="http://www.w3.org/2000/svg"
   xmlns:svg="http://www.w3.org/2000/svg">
  <sodipodi:namedview
     id="namedview1"
     pagecolor="#ffffff"
     bordercolor="#999999"
     borderopacity="1"
     inkscape:showpageshadow="2"
     inkscape:pageopacity="0"
     inkscape:pagecheckerboard="0"
     inkscape:deskcolor="#d1d1d1"
     inkscape:document-units="mm"
     inkscape:zoom="1.0449705"
     inkscape:cx="236.37031"
     inkscape:cy="379.43655"
     inkscape:window-width="1350"
     inkscape:window-height="1237"
     inkscape:window-x="1915"
     inkscape:window-y="116"
     inkscape:window-maximized="0"
     inkscape:current-layer="layer1" />
  <defs
     id="defs1" />
  <g
     inkscape:label="Layer 1"
     inkscape:groupmode="layer"
     id="layer1"
     transform="translate(-47.751452,-84.831412)">
    <text
       xml:space="preserve"
       style="font-weight:bold;font-size:11.2889px;font-family:Sans;-inkscape-font-specification:'Sans, Bold';fill:#000000;fill-opacity:1;stroke-width:1.323;stroke-linecap:round;stroke-linejoin:round"
       x="69.375954"
       y="73.933502"
       id="text2"><tspan
         sodipodi:role="line"
         id="tspan1"
         style="fill:#000000;fill-opacity:1;stroke-width:1.323"
         x="69.375954"
         y="73.933502" /></text>
    <path
       d="m 63.233962,91.622902 c -0.121069,0.06356 -0.410019,0 -0.410019,0 -0.259274,0 -0.561878,-0.194318 -0.956711,-0.31091 -0.38471,-0.11659 -0.799792,-0.174887 -1.245244,-0.174887 -1.073137,0 -1.80206,0.246137 -2.18677,0.738411 -0.374585,0.492275 -0.561878,1.444438 -0.561878,2.856488 0,0 -0.04112,0.133665 0,0.174887 0.99506,0.997312 3.22662,-0.997313 4.221679,0 1.508729,1.512143 1.773717,5.226859 0,6.415479 -1.211252,0.8117 -1.072646,-3.662249 -4.039448,-1.674101 -2.966803,1.988151 3.187974,12.368171 0,17.080621 -1.304694,1.9286 -4.589261,3.94416 -6.479239,2.58725 -5.32468,-3.82286 5.522875,-14.90787 1.012315,-19.667871 -0.536833,-0.56652 -1.750131,0.512391 -2.338629,0 -1.639606,-1.427557 -2.688722,-5.215574 -0.911085,-6.466212 1.003258,-0.705831 2.199565,2.358454 3.249714,1.724834 0.171641,-0.103567 0,-0.602389 0,-0.602389 0,-2.668646 0.551754,-4.67013 1.655263,-6.004452 1.113633,-1.334322 2.794205,-2.001484 5.041718,-2.001484 0.809915,0 1.5439,0.03887 2.201956,0.11659 0.658055,0.06478 4.125282,0.916414 4.631479,1.033002 1.541415,0.355021 -1.388954,3.38928 -2.885101,4.174744 z m 14.44179,9.949128 c -0.114539,0.11479 -0.485948,0 -0.485948,0 -0.232851,-0.10365 -0.607437,-0.18137 -1.123758,-0.23319 -0.51632,-0.0518 -0.946587,-0.0777 -1.290801,-0.0777 -0.779543,0 -1.46797,0.0648 -2.065282,0.19432 -0.597312,0.12955 -2.013219,-0.0913 -1.928609,0.66068 0,0 5.311261,11.03763 1.518474,13.4967 -2.140521,1.38781 -5.364906,-1.66028 -6.580471,-3.90624 -2.489296,-4.59938 -2.17943,-11.29142 0.658006,-15.683621 1.209832,-1.872759 4.27572,-4.436516 5.97308,-2.993093 1.34939,1.147511 -3.041289,4.099064 -1.569089,5.083285 1.13431,0.758329 2.252575,-2.195803 3.143481,-2.623304 0.890906,-0.440456 1.710944,-0.660684 2.460115,-0.660684 0.192355,0 0.43563,0.0063 0.652994,0.01943 0.213097,0.0129 0.637808,-0.126169 0.637808,0.0583 0,0 1.567441,5.094157 0,6.665147 z m 8.564848,15.15686 c -1.253174,2.29938 -7.218111,1.05436 -7.694019,-1.52191 -0.947044,-5.12673 0.643387,-11.5153 1.822169,-17.509917 0.493431,-2.509311 6.690864,-4.04457 6.732318,-3.652589 1.28879,12.186636 2.581911,16.368186 -0.860468,22.684416 z m 0.455554,-25.134023 c -2.352027,1.523621 -7.481102,1.754539 -8.352048,-0.913146 -0.455211,-1.394299 1.942859,-2.290457 3.239411,-2.971307 2.084765,-1.094761 5.296907,-3.31436 6.884185,-1.572643 1.287166,1.4124 -0.168629,4.418743 -1.771548,5.457096 z m 23.112806,26.453013 c -0.75863,2.35487 -5.70592,0.57988 -7.28908,-1.31899 -0.48484,-0.58153 0,-2.27353 0,-2.27353 0,-1.36375 -1.8223,1.71001 -2.642345,2.17638 -0.820043,0.46636 -1.76663,0.69954 -2.839761,0.69954 -2.075413,0 -3.735735,-1.0234 -4.980977,-3.07023 -1.245242,-2.04683 -1.867863,-4.80616 -1.867863,-8.27799 0,-1.8525 0.204628,-3.49211 0.622621,-4.91626 0.422297,-1.438821 1.003483,-2.667773 1.731191,-3.692061 0.689646,-0.970722 1.52365,-1.72296 2.505676,-2.254099 0.982016,-0.544092 1.964042,-0.816138 2.946057,-0.816138 1.02252,0 1.857745,0.1425 2.505681,0.427502 0.65805,0.272046 1.33129,0.62182 2.01972,1.049321 0,0 -4.717939,-6.50438 -2.834483,-9.034789 1.281503,-1.721679 6.428613,0.101466 6.428613,0.101466 -0.94222,-0.01487 6.06337,23.848158 3.69495,31.199878 z m -7.28908,-7.34287 V 99.998043 c 0,-0.437757 -0.78966,-0.356251 -1.21487,-0.446933 -0.4252,-0.09068 -0.81497,-0.136023 -1.16931,-0.136023 -1.437603,0 -2.512886,0.578309 -3.234598,1.729433 -0.715887,1.14185 -1.046318,3.13382 -1.078205,4.76082 -0.03102,1.58091 0.285685,3.69376 0.865601,4.66365 0.574221,0.96035 1.745252,1.30297 2.77902,1.43796 0.534622,0.0698 1.022512,-0.11659 1.579322,-0.34978 0.55682,-0.24613 1.47304,-0.37539 1.47304,-0.95216 z m 20.95654,0.33034 c 1.33525,-0.95017 1.61971,-4.64852 1.61971,-4.64852 l -4.01908,0.4318 c -0.86053,0.12955 -1.51352,0.28501 -1.95898,0.46637 -0.54669,0.22023 -0.96684,0.54409 -1.26043,0.97159 -0.28347,0.41455 -0.42521,0.96512 -0.42521,1.65171 0,0.45341 0.0303,0.82262 0.0911,1.10762 0.0607,0.285 0.21257,0.55705 0.45558,0.81614 0.23285,0.25909 0.51126,0.45341 0.83522,0.58296 0.32397,0.11659 0.83017,0.17488 1.51859,0.17488 0.5467,0 1.09845,-0.1425 1.65526,-0.4275 0.56694,-0.285 1.06302,-0.66068 1.48822,-1.12705 0,0 3e-5,1e-5 4e-5,0 z m 0,3.38115 c -0.29359,0.285 -0.65806,0.6283 -1.09339,1.0299 -0.43532,0.40158 -0.84534,0.71897 -1.23005,0.95215 -0.53657,0.31091 -1.09338,0.53763 -1.67045,0.68013 -0.57706,0.15545 -1.20981,0.23318 -1.89823,0.23318 -1.61983,0 -2.97644,-0.64125 -4.06982,-1.92376 -1.09339,-1.28251 -1.64008,-2.92126 -1.64008,-4.91627 0,-1.59342 0.27841,-2.89535 0.83522,-3.90581 0.55681,-1.01046 1.34648,-1.80717 2.369,-2.39012 1.01239,-0.58296 2.26776,-0.9975 3.7661,-1.24364 1.49834,-0.24614 3.05236,-0.4275 4.66208,-0.54409 0,0 0.008,-0.0786 0,-0.1166 -0.19701,-0.89279 -0.38471,-2.03387 -1.15413,-2.487276 -0.76942,-0.466365 -1.9033,-0.699547 -3.40164,-0.699547 -0.90103,0 -1.86281,0.207273 -2.88533,0.62182 -1.02251,0.401593 -1.75649,0.712503 -2.20195,0.932733 0,0 -1.49837,1.7196 -2.22207,1.26826 -2.62342,-1.63611 -2.17984,-7.835879 0.55677,-9.273745 1.37184,-0.720794 2.67769,2.67353 3.97356,2.414439 1.30598,-0.272046 2.61197,-0.763182 3.91796,-0.763182 3.10804,0 5.35049,0.615342 6.72735,1.846028 1.38698,1.217732 2.98554,6.38697 0.41015,6.81717 -0.11488,0.0192 4.0286,10.17982 4.75788,13.83135 0.59201,2.96423 -6.60821,3.83391 -8.86324,1.8263 -1.04544,-0.93074 0.71358,-4.53818 0.35431,-4.18942 z m 16.62797,-9.32661 c 0,0 -1.09089,-11.661054 4.39445,-12.516597 2.40866,-0.375675 3.20582,4.058603 3.3917,6.49349 0.67269,8.811847 -3.35121,15.697317 -8.56515,25.090797 -1.5974,2.87788 -6.57887,-0.67783 -6.83335,-3.1768 -0.24985,-2.45348 5.9425,-4.40733 5.9425,-4.40733 0,0 -11.9113,-16.26998 -6.63624,-21.666559 1.37997,-1.411762 4.2655,0.256399 5.68966,1.623373 3.15962,3.032763 2.61643,8.559626 2.61643,8.559626 z"
       id="text3"
       style="font-weight:bold;font-size:31.0752px;font-family:Sans;-inkscape-font-specification:'Sans, Bold';fill:#f9f9f9;stroke:#000000;stroke-width:1.323;stroke-linecap:round;stroke-linejoin:round"
       aria-label="friday"
       sodipodi:nodetypes="sscscsssszsassssscscssscssssasssacsassssssssssssssssssssscsccssssssssasacssscccssccscssssscsssscscacsccsacscsssscsssacaacss" />
  </g>
</svg>
