<?xml version="1.0" encoding="UTF-8" standalone="no"?>
<!-- Created with Inkscape (http://www.inkscape.org/) -->

<svg
   width="102.36802mm"
   height="102.66692mm"
   viewBox="0 0 102.36802 102.66692"
   version="1.1"
   id="svg1"
   sodipodi:docname="drawing.svg"
   inkscape:version="1.3.2 (091e20e, 2023-11-25, custom)"
   xmlns:inkscape="http://www.inkscape.org/namespaces/inkscape"
   xmlns:sodipodi="http://sodipodi.sourceforge.net/DTD/sodipodi-0.dtd"
   xmlns="http://www.w3.org/2000/svg"
   xmlns:svg="http://www.w3.org/2000/svg">
  <sodipodi:namedview
     id="namedview1"
     pagecolor="#ffffff"
     bordercolor="#999999"
     borderopacity="1"
     inkscape:showpageshadow="2"
     inkscape:pageopacity="0"
     inkscape:pagecheckerboard="0"
     inkscape:deskcolor="#d1d1d1"
     inkscape:document-units="mm"
     inkscape:zoom="1.4142136"
     inkscape:cx="183.84776"
     inkscape:cy="177.4838"
     inkscape:window-width="1718"
     inkscape:window-height="1360"
     inkscape:window-x="-7"
     inkscape:window-y="0"
     inkscape:window-maximized="0"
     inkscape:current-layer="layer1" />
  <defs
     id="defs1">
    <rect
       x="330.92596"
       y="98.994949"
       width="98.994949"
       height="31.112698"
       id="rect143" />
    <inkscape:perspective
       sodipodi:type="inkscape:persp3d"
       inkscape:vp_x="0 : 162.1932 : 1"
       inkscape:vp_y="0 : 999.99999 : 0"
       inkscape:vp_z="210 : 162.1932 : 1"
       inkscape:persp3d-origin="105 : 112.6932 : 1"
       id="perspective1" />
  </defs>
  <g
     inkscape:label="Layer 1"
     inkscape:groupmode="layer"
     id="layer1"
     transform="translate(6.8767295,-198.60835)">
    <text
       xml:space="preserve"
       transform="scale(0.26458333)"
       id="text143"
       style="white-space:pre;shape-inside:url(#rect143);opacity:0.542;fill:#ff0000;stroke:none;stroke-width:5;stroke-linecap:round;stroke-dasharray:none" />
    <path
       id="path301"
       style="opacity:1;fill:#ffdab9;fill-opacity:1;stroke:none;stroke-width:1.32292;stroke-linecap:round;stroke-dasharray:none"
       d="m 1.3440006,239.74232 6.6145827,1.4552 m -2.231639,-14.45724 6.0812597,5.93876 -1.144609,2.044 -5.3842267,-1.32829 3.96491,3.86286 -1.144609,2.044 -8.24120675,-2.08159 1.079973,-1.92858 5.54640275,1.65917 -4.1917227,-4.07831 1.031495,-1.84201 5.6325847,1.50527 -4.283292,-3.91479 z m 12.4377797,-1.22236 -4.094773,4.29837 -5.9426857,-5.66121 4.0947727,-4.29837 1.149425,1.09498 -2.642402,2.77379 1.025702,0.97712 2.452301,-2.57423 1.149425,1.09498 -2.452302,2.57423 1.46871,1.39914 2.642403,-2.77378 z m 9.451925,-10.96845 q 0.944996,1.7198 0.516934,3.27581 -0.430717,1.55117 -2.169841,2.50678 -1.734294,0.95296 -3.274585,0.48482 -1.542945,-0.47297 -2.487941,-2.19277 -0.95296,-1.7343 -0.519589,-3.28064 0.430717,-1.55117 2.165011,-2.50413 1.729463,-0.95031 3.274584,-0.48482 1.542468,0.46066 2.495427,2.19495 z m -1.458188,3.17238 q 0.09003,-0.47715 -0.02375,-0.99326 -0.116433,-0.52095 -0.448243,-1.12481 -0.355701,-0.64734 -0.75498,-1.01916 -0.399279,-0.37181 -0.794785,-0.51928 -0.405645,-0.15447 -0.800986,-0.10706 -0.390511,0.0448 -0.738335,0.23589 -0.352656,0.19377 -0.597648,0.49192 -0.240161,0.29549 -0.341761,0.72868 -0.09289,0.40326 0.01531,0.96646 0.110381,0.55572 0.455464,1.18374 0.353047,0.64251 0.747495,1.01698 0.396625,0.36698 0.794785,0.51928 0.398159,0.1523 0.796155,0.10971 0.397996,-0.0426 0.755483,-0.23901 0.357486,-0.19643 0.606831,-0.50955 0.246691,-0.31795 0.328967,-0.74053 z M 37.274164,212.806 q 0.40764,1.46572 -0.26742,2.49451 -0.67507,1.02879 -2.41164,1.51175 -1.736565,0.48297 -2.845859,-0.0496 -1.103983,-0.534 -1.510147,-1.99442 l -1.404587,-5.05038 2.049892,-0.57011 1.372094,4.93355 q 0.228929,0.82314 0.686367,1.13075 0.457437,0.3076 1.23279,0.092 0.76472,-0.21268 1.0074,-0.69784 0.248,-0.48663 0.0102,-1.34163 l -1.372098,-4.93355 2.049888,-0.57011 z m 8.78922,-4.38119 -2.55842,0.15583 0.40246,6.60785 -2.11275,0.12868 -0.40246,-6.60786 -2.55841,0.15583 -0.0965,-1.58457 7.22958,-0.44032 z m 18.81477,2.33362 -4.48722,7.21911 -2.24278,-0.67677 0.13563,-5.544 -2.91668,4.7048 -2.24278,-0.67677 0.25495,-8.49621 2.11613,0.63856 -0.42375,5.77372 3.07815,-4.97275 2.02114,0.60989 -0.25488,5.82468 2.89873,-5.02688 z m 3.85826,11.91606 -5.06588,-3.09515 4.27918,-7.00381 5.06589,3.09515 -0.82768,1.35467 -3.26907,-1.99734 -0.73858,1.20885 3.03388,1.85365 -0.82767,1.35466 -3.03388,-1.85364 -1.05759,1.73096 3.26907,1.99734 z m 7.99309,3.66507 q -0.82383,0.88988 -2.09699,0.74782 -1.26537,-0.14236 -2.55975,-1.34065 -0.7483,-0.69277 -1.18667,-1.33897 -0.43058,-0.6465 -0.72873,-1.29811 l 1.33685,-1.44403 0.16988,0.15727 q 0.1256,0.82989 0.52923,1.58665 0.40766,0.7605 0.95777,1.26977 0.14157,0.13107 0.3946,0.32025 0.25303,0.18917 0.45107,0.26735 0.24538,0.092 0.45974,0.0876 0.21841,-6.1e-4 0.41688,-0.21499 0.18349,-0.1982 0.14467,-0.49705 -0.031,-0.29915 -0.28348,-0.67558 -0.26488,-0.39545 -0.58144,-0.81621 -0.30877,-0.42107 -0.53935,-0.83734 -0.53201,-0.95074 -0.47829,-1.68222 0.0615,-0.73178 0.64193,-1.35874 0.77889,-0.84134 2.0218,-0.67471 1.25069,0.16632 2.43585,1.26352 0.5946,0.55046 1.06443,1.20325 0.47761,0.6525 0.74131,1.21962 l -1.28443,1.3874 -0.16584,-0.15353 q -0.0944,-0.62826 -0.44456,-1.31296 -0.34235,-0.68501 -0.89246,-1.19429 -0.19415,-0.17974 -0.41452,-0.33117 -0.21258,-0.15173 -0.45796,-0.24369 -0.21392,-0.0854 -0.44326,-0.0648 -0.2256,0.0165 -0.37164,0.17425 -0.22094,0.23865 -0.15875,0.53659 0.0659,0.29391 0.47419,0.86716 0.26802,0.37583 0.51147,0.72139 0.2475,0.34932 0.49456,0.78836 0.48198,0.86686 0.44638,1.56253 -0.0278,0.69538 -0.60449,1.31829 z m 8.28952,4.35866 -1.50451,-2.07514 -5.35967,3.88583 -1.24243,-1.71367 5.35967,-3.88583 -1.5045,-2.07514 1.28525,-0.93183 4.25144,5.86396 z m -0.94169,15.24748 -0.45508,0.46485 c 0,0 -1.24514,1.267 -2.45117,2.49218 -0.60301,0.61259 -1.19603,1.21421 -1.61914,1.64258 -0.21156,0.21419 -0.38101,0.38451 -0.48633,0.49024 -0.0462,0.0464 -0.0732,0.0754 -0.0898,0.0918 0.006,-0.005 0.0354,-0.0294 0.0352,-0.0293 -2e-4,1.5e-4 0.37701,-0.13087 0.37696,-0.13086 -1e-5,0 0.0708,0.12557 0.0996,0.17578 a 0.66145998,0.66145998 0 0 0 -0.54883,0.0176 c -0.007,0.007 -0.012,0.0128 -0.0215,0.0234 -0.005,0.005 -0.01,0.0101 -0.0254,0.0293 -0.008,0.01 -0.0448,0.0643 -0.0449,0.0644 -9e-5,1.5e-4 0.58002,1.01172 0.58008,1.01172 6e-5,-1e-5 0.3787,-0.13266 0.37891,-0.13282 2e-4,-1.5e-4 0.0286,-0.0236 0.0351,-0.0293 0.0131,-0.0114 0.0188,-0.0152 0.0234,-0.0195 0.009,-0.009 0.0129,-0.015 0.0195,-0.0215 0.0264,-0.0258 0.065,-0.0628 0.11914,-0.11718 0.10838,-0.1088 0.27811,-0.27939 0.49024,-0.49414 0.42424,-0.42952 1.01783,-1.03169 1.62109,-1.64454 0.69502,-0.70606 0.937,-0.95234 1.41211,-1.43554 l -0.006,2.14648 c -0.0969,0.0985 -1.19362,1.21432 -2.34961,2.38867 -0.60301,0.61259 -1.19603,1.21421 -1.61914,1.64258 -0.21156,0.21419 -0.38101,0.38451 -0.48633,0.49024 -0.0458,0.046 -0.073,0.0752 -0.0898,0.0918 0.006,-0.005 0.0354,-0.0275 0.0352,-0.0273 -2e-4,1.5e-4 0.37701,-0.13282 0.37696,-0.13282 -1e-5,0 0.0725,0.12515 0.10156,0.17578 a 0.66145998,0.66145998 0 0 0 -0.55078,0.0176 c -0.007,0.007 -0.012,0.0128 -0.0215,0.0234 -0.005,0.005 -0.01,0.0101 -0.0254,0.0293 -0.008,0.01 -0.0448,0.0643 -0.0449,0.0645 -9e-5,1.6e-4 0.58002,1.01172 0.58008,1.01172 6e-5,0 0.3787,-0.13265 0.37891,-0.13281 2e-4,-1.6e-4 0.0286,-0.0236 0.0351,-0.0293 0.0131,-0.0114 0.0188,-0.0152 0.0234,-0.0195 0.009,-0.009 0.0129,-0.0131 0.0195,-0.0195 0.0264,-0.0258 0.065,-0.0628 0.11914,-0.11719 0.10838,-0.1088 0.27811,-0.28133 0.49024,-0.49609 0.42424,-0.42952 1.01783,-1.03169 1.62109,-1.64453 0.6893,-0.70025 0.92542,-0.94077 1.40039,-1.42383 l -0.006,2.14648 c -0.10712,0.10899 -1.18761,1.20841 -2.33789,2.37696 -0.60301,0.61259 -1.19603,1.2142 -1.61914,1.64258 -0.21156,0.21418 -0.38101,0.38645 -0.48633,0.49218 -0.0457,0.0459 -0.0729,0.0732 -0.0898,0.0898 0.006,-0.005 0.0354,-0.0275 0.0352,-0.0273 -2e-4,1.6e-4 0.37701,-0.13281 0.37696,-0.13281 -1e-5,0 0.0725,0.12514 0.10156,0.17578 a 0.66145998,0.66145998 0 0 0 -0.55052,0.0176 c -0.007,0.007 -0.012,0.0128 -0.0215,0.0234 -0.005,0.005 -0.01,0.0101 -0.0254,0.0293 -0.008,0.01 -0.0448,0.0643 -0.0449,0.0644 -9e-5,1.6e-4 0.58002,1.01172 0.58008,1.01172 6e-5,0 0.3787,-0.13265 0.37891,-0.13281 2e-4,-1.6e-4 0.0286,-0.0236 0.0351,-0.0293 0.0132,-0.0114 0.0188,-0.0152 0.0234,-0.0195 0.009,-0.009 0.0129,-0.0131 0.0195,-0.0195 0.0264,-0.0258 0.065,-0.0628 0.11914,-0.11719 0.10838,-0.1088 0.27811,-0.28133 0.49024,-0.49609 0.42424,-0.42952 1.01783,-1.03169 1.62109,-1.64453 0.68454,-0.69541 0.91583,-0.93119 1.39062,-1.41406 l -0.006,2.14843 c -0.11558,0.11761 -1.18263,1.20156 -2.32812,2.36524 -0.60301,0.61259 -1.19603,1.21616 -1.61914,1.64453 -0.21156,0.21419 -0.38101,0.3845 -0.48633,0.49023 -0.0457,0.0459 -0.0729,0.0732 -0.0898,0.0898 0.006,-0.005 0.0354,-0.0275 0.0352,-0.0273 -1.6e-4,1.3e-4 0.19423,-0.0682 0.29493,-0.10351 a 0.66145998,0.66145998 0 0 0 -0.36719,0.16601 c -0.007,0.007 -0.012,0.0109 -0.0215,0.0215 -0.005,0.005 -0.01,0.0101 -0.0254,0.0293 -0.008,0.01 -0.0448,0.0643 -0.0449,0.0644 -9e-5,1.6e-4 0.58002,1.01172 0.58008,1.01172 6e-5,0 0.3787,-0.1307 0.37891,-0.13086 2e-4,-1.5e-4 0.0286,-0.0236 0.0351,-0.0293 0.0132,-0.0114 0.0188,-0.0172 0.0234,-0.0215 0.009,-0.009 0.0129,-0.0131 0.0195,-0.0195 0.0264,-0.0258 0.065,-0.0628 0.11914,-0.11718 0.10838,-0.1088 0.27811,-0.27939 0.49024,-0.49414 0.42424,-0.42952 1.01783,-1.03365 1.62109,-1.64649 0.67882,-0.6896 0.90442,-0.91978 1.37891,-1.40234 l -0.004,1.53711 c -0.12391,0.12607 -1.17764,1.19663 -2.31836,2.35547 -0.60301,0.61259 -1.19603,1.21615 -1.61914,1.64453 -0.21156,0.21418 -0.38101,0.3845 -0.48633,0.49023 -0.0462,0.0464 -0.0732,0.0754 -0.0898,0.0918 0.006,-0.005 0.0354,-0.0294 0.0352,-0.0293 -2e-4,1.6e-4 0.37701,-0.13086 0.37696,-0.13086 -1e-5,0 0.0708,0.12558 0.0996,0.17578 a 0.66145998,0.66145998 0 0 0 -0.54883,0.0176 c -0.007,0.007 -0.012,0.0128 -0.0215,0.0234 -0.005,0.005 -0.01,0.008 -0.0254,0.0273 -0.008,0.01 -0.0448,0.0663 -0.0449,0.0664 -9e-5,1.6e-4 0.58002,1.01172 0.58008,1.01172 6e-5,0 0.3787,-0.13266 0.37891,-0.13281 2e-4,-1.6e-4 0.0286,-0.0236 0.0351,-0.0293 0.0132,-0.0114 0.0188,-0.0152 0.0234,-0.0195 0.009,-0.009 0.0129,-0.015 0.0195,-0.0215 0.0264,-0.0258 0.065,-0.0628 0.11914,-0.11719 0.10838,-0.1088 0.27811,-0.27938 0.49024,-0.49414 0.42424,-0.42952 1.01783,-1.03169 1.62109,-1.64453 0.67405,-0.68476 0.89498,-0.91035 1.36914,-1.39258 l -0.0176,6.61719 a 0.66145998,0.66145998 0 0 0 0.6582,0.66406 0.66145998,0.66145998 0 0 0 0.66407,-0.66016 l 0.0176,-6.59179 1.19726,1.14062 1.01953,0.96875 1.54492,1.51758 a 0.66145998,0.66145998 0 0 0 0.93555,-0.01 0.66145998,0.66145998 0 0 0 -0.01,-0.93555 l -1.55079,-1.52343 -1.02539,-0.97657 -2.10547,-2.0039 0.004,-1.58789 1.1875,1.13086 1.01953,0.9707 1.54492,1.51562 a 0.66145998,0.66145998 0 0 0 0.93555,-0.008 0.66145998,0.66145998 0 0 0 -0.01,-0.93554 l -1.55079,-1.52344 -1.02539,-0.97656 -2.09765,-1.9961 0.008,-2.19531 1.17578,1.12109 1.01953,0.97071 1.54492,1.51562 a 0.66145998,0.66145998 0 0 0 0.93555,-0.008 0.66145998,0.66145998 0 0 0 -0.01,-0.93554 l -1.55079,-1.52344 -1.02539,-0.97656 -2.08593,-1.98633 0.006,-2.19531 1.16601,1.11132 1.01953,0.97071 1.54492,1.51562 a 0.66145998,0.66145998 0 0 0 0.93555,-0.008 0.66145998,0.66145998 0 0 0 -0.01,-0.93554 l -1.55079,-1.52344 -1.02539,-0.97852 -2.07422,-1.97461 0.006,-2.19336 1.1543,1.09961 1.01953,0.96875 1.54492,1.51758 a 0.66145998,0.66145998 0 0 0 0.93555,-0.01 0.66145998,0.66145998 0 0 0 -0.01,-0.93555 l -1.55079,-1.52343 -1.02539,-0.97657 -2.13281,-2.02929 a 0.66145998,0.66145998 0 0 0 -0.35937,-0.34375 z m -4.11523,6.02344 c 1.1e-4,1.9e-4 0.006,0.01 0.006,0.01 1e-4,-1.5e-4 -0.0377,0.0535 -0.0449,0.0625 -0.0144,0.018 -0.017,0.0206 -0.0195,0.0234 a 0.66145998,0.66145998 0 0 0 0.0586,-0.0957 z m 0,4.02734 c 1.1e-4,1.9e-4 0.006,0.01 0.006,0.01 1e-4,-1.5e-4 -0.0377,0.0535 -0.0449,0.0625 -0.0144,0.018 -0.017,0.0206 -0.0195,0.0234 a 0.66145998,0.66145998 0 0 0 0.0586,-0.0957 z m 0.002,4.0293 c 6e-5,1.1e-4 0.004,0.008 0.004,0.008 1e-4,-1.5e-4 -0.0377,0.0535 -0.0449,0.0625 -0.0111,0.0138 -0.0131,0.0149 -0.0156,0.0176 a 0.66145998,0.66145998 0 0 0 0.0566,-0.0879 z m 0,4.02734 c 6e-5,1.2e-4 0.004,0.008 0.004,0.008 1e-4,-1.5e-4 -0.0377,0.0555 -0.0449,0.0644 -0.0145,0.018 -0.017,0.0206 -0.0195,0.0234 a 0.66145998,0.66145998 0 0 0 0.0606,-0.0957 z m -0.002,3.41797 c 1.1e-4,1.9e-4 0.006,0.01 0.006,0.01 1e-4,-1.5e-4 -0.0377,0.0535 -0.0449,0.0625 -0.0145,0.018 -0.017,0.0206 -0.0195,0.0234 a 0.66145998,0.66145998 0 0 0 0.0586,-0.0957 z m -72.5918007,-15.54297 -0.458985,0.46875 c 0,0 -1.061252,1.08435 -2.089843,2.13477 -0.514296,0.52521 -1.0200637,1.04296 -1.3808597,1.41016 -0.180398,0.1836 -0.324457,0.32949 -0.414062,0.41992 -0.03634,0.0367 -0.05548,0.0575 -0.07031,0.0723 0.0059,-0.005 0.03338,-0.0275 0.0332,-0.0273 -1.32e-4,10e-5 0.178941,-0.0622 0.285157,-0.0996 a 0.66145998,0.66145998 0 0 0 -0.359375,0.16406 c -0.0058,0.006 -0.01041,0.0112 -0.01953,0.0215 -0.0046,0.005 -0.0081,0.008 -0.02344,0.0273 -0.0077,0.01 -0.04484,0.0643 -0.04492,0.0645 -8.2e-5,1.3e-4 0.58003,1.01172 0.580078,1.01172 4.8e-5,0 0.380683,-0.13463 0.380859,-0.13477 1.77e-4,-1.3e-4 0.02864,-0.0236 0.03516,-0.0293 0.01303,-0.0113 0.01708,-0.0154 0.02148,-0.0195 0.0088,-0.008 0.01365,-0.0118 0.01953,-0.0176 0.0047,-0.005 0.01407,-0.0161 0.01953,-0.0215 0,0 0.002,-0.002 0.002,-0.002 a 0.66145998,0.66145998 0 0 0 0.05469,-0.10547 c 3.42e-4,5.9e-4 0.0098,0.0176 0.0098,0.0176 8.2e-5,-1.3e-4 -0.03769,0.0535 -0.04492,0.0625 -0.01447,0.0181 -0.01688,0.0224 -0.01953,0.0254 0.02133,-0.0212 0.044,-0.0417 0.08008,-0.0781 0.09265,-0.0935 0.2370077,-0.2416 0.4179687,-0.42578 0.361921,-0.36834 0.868271,-0.88469 1.382812,-1.41015 0.508123,-0.51891 0.640946,-0.6537 1.033203,-1.05469 l 0.01172,1.54883 c -0.0939,0.096 -1.010623,1.0328 -1.990234,2.0332 -0.514296,0.52521 -1.0200637,1.04296 -1.3808597,1.41016 -0.180398,0.1836 -0.324457,0.32949 -0.414062,0.41992 -0.03634,0.0367 -0.05548,0.0575 -0.07031,0.0723 0.0059,-0.005 0.03338,-0.0275 0.0332,-0.0273 -1.76e-4,1.3e-4 0.378955,-0.13282 0.378907,-0.13281 -9e-6,0 0.07199,0.12635 0.101562,0.17773 a 0.66145998,0.66145998 0 0 0 -0.554687,0.0195 c -0.0058,0.006 -0.01041,0.0112 -0.01953,0.0215 -0.0046,0.005 -0.0081,0.008 -0.02344,0.0273 -0.0077,0.01 -0.04484,0.0643 -0.04492,0.0644 -8.2e-5,1.3e-4 0.58003,1.01172 0.580078,1.01172 4.8e-5,0 0.380683,-0.13463 0.380859,-0.13477 1.77e-4,-1.3e-4 0.02864,-0.0217 0.03516,-0.0273 0.01303,-0.0113 0.01708,-0.0173 0.02148,-0.0215 0.0088,-0.008 0.01365,-0.0118 0.01953,-0.0176 0.0047,-0.005 0.01407,-0.0161 0.01953,-0.0215 0,0 0.002,-0.002 0.002,-0.002 a 0.66145998,0.66145998 0 0 0 0.05469,-0.10547 c 3.42e-4,5.9e-4 0.0098,0.0176 0.0098,0.0176 8.2e-5,-1.3e-4 -0.03769,0.0535 -0.04492,0.0625 -0.01447,0.0181 -0.01688,0.0224 -0.01953,0.0254 0.02133,-0.0212 0.044,-0.0417 0.08008,-0.0781 0.09265,-0.0935 0.2370077,-0.2416 0.4179687,-0.42578 0.361921,-0.36834 0.868271,-0.88469 1.382812,-1.41015 0.52143,-0.5325 0.664763,-0.67743 1.060547,-1.08204 l 0.01172,1.54883 c -0.06978,0.0714 -1.024653,1.04655 -2.017578,2.06055 -0.514296,0.52521 -1.0200637,1.04296 -1.3808597,1.41016 -0.180398,0.1836 -0.324457,0.32949 -0.414062,0.41992 -0.03634,0.0367 -0.05548,0.0575 -0.07031,0.0723 0.0059,-0.005 0.03338,-0.0275 0.0332,-0.0273 -1.76e-4,1.3e-4 0.378955,-0.13282 0.378907,-0.13281 -9e-6,0 0.07199,0.12635 0.101562,0.17773 a 0.66145998,0.66145998 0 0 0 -0.554687,0.0195 c -0.0058,0.006 -0.01041,0.0112 -0.01953,0.0215 -0.0046,0.005 -0.0081,0.008 -0.02344,0.0273 -0.0077,0.01 -0.04484,0.0663 -0.04492,0.0664 -8.2e-5,1.3e-4 0.58003,1.00977 0.580078,1.00976 4.8e-5,0 0.380683,-0.13267 0.380859,-0.13281 1.77e-4,-1.3e-4 0.02864,-0.0236 0.03516,-0.0293 0.01303,-0.0113 0.01708,-0.0154 0.02148,-0.0195 0.0088,-0.008 0.01365,-0.0138 0.01953,-0.0195 0.0047,-0.005 0.01407,-0.0161 0.01953,-0.0215 0,0 0.002,-0.002 0.002,-0.002 a 0.66145998,0.66145998 0 0 0 0.05469,-0.10547 c 3.42e-4,5.9e-4 0.0098,0.0176 0.0098,0.0176 8.2e-5,-1.3e-4 -0.03769,0.0554 -0.04492,0.0644 -0.01447,0.0181 -0.01688,0.0205 -0.01953,0.0234 0.02133,-0.0212 0.044,-0.0417 0.08008,-0.0781 0.09265,-0.0935 0.2370077,-0.23965 0.4179687,-0.42382 0.361921,-0.36835 0.868271,-0.88665 1.382812,-1.41211 0.534268,-0.54561 0.687257,-0.7018 1.085938,-1.10938 l 0.01172,1.54883 c -0.04551,0.0465 -1.037189,1.06272 -2.042968,2.08984 -0.514296,0.52521 -1.0200637,1.04101 -1.3808597,1.40821 -0.180398,0.1836 -0.324457,0.32949 -0.414062,0.41992 -0.0448,0.0452 -0.07787,0.0781 -0.08789,0.0879 0.0022,-0.002 0.0058,-0.003 0.01758,-0.0137 0.0059,-0.005 0.03338,-0.0294 0.0332,-0.0293 -1.76e-4,1.3e-4 0.378955,-0.13282 0.378907,-0.13281 -9e-6,0 0.07199,0.12635 0.101562,0.17773 a 0.66145998,0.66145998 0 0 0 -0.554687,0.0195 c -0.0058,0.006 -0.01041,0.0112 -0.01953,0.0215 -0.0046,0.005 -0.0081,0.0102 -0.02344,0.0293 -0.0077,0.01 -0.04484,0.0643 -0.04492,0.0644 -8.2e-5,1.3e-4 0.58003,1.00977 0.580078,1.00976 4.8e-5,0 0.380683,-0.13267 0.380859,-0.13281 1.77e-4,-1.3e-4 0.02864,-0.0236 0.03516,-0.0293 0.01304,-0.0113 0.01708,-0.0154 0.02148,-0.0195 0.0088,-0.008 0.01365,-0.0138 0.01953,-0.0195 0.0047,-0.005 0.01407,-0.0161 0.01953,-0.0215 0,0 0.002,-0.002 0.002,-0.002 a 0.66145998,0.66145998 0 0 0 0.05469,-0.10547 c 3.42e-4,5.9e-4 0.0098,0.0176 0.0098,0.0176 8.2e-5,-1.3e-4 -0.03769,0.0554 -0.04492,0.0645 -0.01447,0.0181 -0.01688,0.0204 -0.01953,0.0234 0.02134,-0.0212 0.044,-0.0417 0.08008,-0.0781 0.09265,-0.0935 0.2370077,-0.23965 0.4179687,-0.42382 0.361921,-0.36835 0.868271,-0.88665 1.382812,-1.41211 0.547351,-0.55897 0.712175,-0.72471 1.113281,-1.13477 l 0.03711,4.85156 a 0.66145998,0.66145998 0 0 0 0.667968,0.65625 0.66145998,0.66145998 0 0 0 0.65625,-0.66797 l -0.03516,-4.60156 0.740235,0.70899 0.867187,0.83007 1.3183587,1.30079 a 0.66145998,0.66145998 0 0 0 0.935547,-0.006 0.66145998,0.66145998 0 0 0 -0.0078,-0.93555 l -1.324219,-1.30664 -0.8749997,-0.83789 -1.669922,-1.59961 -0.01172,-1.63477 0.767579,0.73633 0.867187,0.83008 1.3183587,1.30078 a 0.66145998,0.66145998 0 0 0 0.935547,-0.006 0.66145998,0.66145998 0 0 0 -0.0078,-0.93555 l -1.324219,-1.30664 -0.8749997,-0.83789 -1.697266,-1.62695 -0.01172,-1.63281 0.794922,0.76172 0.867187,0.83007 1.3183587,1.30079 a 0.66145998,0.66145998 0 0 0 0.935547,-0.008 0.66145998,0.66145998 0 0 0 -0.0078,-0.9336 l -1.324219,-1.30859 -0.8749997,-0.83789 -1.724609,-1.65039 -0.01172,-1.63477 0.822266,0.78906 0.867187,0.83008 1.3183587,1.30078 a 0.66145998,0.66145998 0 0 0 0.935547,-0.008 0.66145998,0.66145998 0 0 0 -0.0078,-0.93554 l -1.324219,-1.30664 -0.8749997,-0.83789 -1.904297,-1.82422 a 0.66145998,0.66145998 0 0 0 -0.152344,-0.14649 z m 19.0976557,39.79297 a 0.66145998,0.66145998 0 0 0 -0.660156,0.66211 0.66145998,0.66145998 0 0 0 0.660156,0.66016 h 8.314455 a 0.66145998,0.66145998 0 0 0 0.66015,-0.66016 0.66145998,0.66145998 0 0 0 -0.66015,-0.66211 z m 15.177735,0 a 0.66145998,0.66145998 0 0 0 -0.66211,0.66211 0.66145998,0.66145998 0 0 0 0.66211,0.66016 h 22.08789 a 0.66145998,0.66145998 0 0 0 0.66211,-0.66016 0.66145998,0.66145998 0 0 0 -0.66211,-0.66211 z m -22.160157,-4.36523 a 0.66145998,0.66145998 0 0 0 -0.660156,0.6621 0.66145998,0.66145998 0 0 0 0.660156,0.66211 h 29.046877 a 0.66145998,0.66145998 0 0 0 0.66211,-0.66211 0.66145998,0.66145998 0 0 0 -0.66211,-0.6621 z m 34.460937,0 a 0.66145998,0.66145998 0 0 0 -0.66211,0.6621 0.66145998,0.66145998 0 0 0 0.66211,0.66211 h 16.76953 a 0.66145998,0.66145998 0 0 0 0.66211,-0.66211 0.66145998,0.66145998 0 0 0 -0.66211,-0.6621 z m -39.30664,-4.36329 a 0.66145998,0.66145998 0 0 0 -0.662109,0.66016 0.66145998,0.66145998 0 0 0 0.662109,0.66211 h 2.742187 a 0.66145998,0.66145998 0 0 0 0.66211,-0.66211 0.66145998,0.66145998 0 0 0 -0.66211,-0.66016 z m 7.96875,0 a 0.66145998,0.66145998 0 0 0 -0.660156,0.66016 0.66145998,0.66145998 0 0 0 0.660156,0.66211 h 7.449219 a 0.66145998,0.66145998 0 0 0 0.662109,-0.66211 0.66145998,0.66145998 0 0 0 -0.662109,-0.66016 z m 14.3125,0 a 0.66145998,0.66145998 0 0 0 -0.66016,0.66016 0.66145998,0.66145998 0 0 0 0.66016,0.66211 h 18.7207 a 0.66145998,0.66145998 0 0 0 0.66211,-0.66211 0.66145998,0.66145998 0 0 0 -0.66211,-0.66016 z m 23.24609,0 a 0.66145998,0.66145998 0 0 0 -0.66211,0.66016 0.66145998,0.66145998 0 0 0 0.66211,0.66211 h 15.39649 a 0.66145998,0.66145998 0 0 0 0.66015,-0.66211 0.66145998,0.66145998 0 0 0 -0.66015,-0.66016 z m -49.177731,-4.36523 a 0.66145998,0.66145998 0 0 0 -0.662109,0.66211 0.66145998,0.66145998 0 0 0 0.662109,0.66016 h 18.97461 a 0.66145998,0.66145998 0 0 0 0.662109,-0.66016 0.66145998,0.66145998 0 0 0 -0.662109,-0.66211 z m 24.201171,0 a 0.66145998,0.66145998 0 0 0 -0.66015,0.66211 0.66145998,0.66145998 0 0 0 0.66015,0.66016 h 12.0918 a 0.66145998,0.66145998 0 0 0 0.66015,-0.66016 0.66145998,0.66145998 0 0 0 -0.66015,-0.66211 z m 19.1543,0 a 0.66145998,0.66145998 0 0 0 -0.66211,0.66211 0.66145998,0.66145998 0 0 0 0.66211,0.66016 h 10.54687 a 0.66145998,0.66145998 0 0 0 0.66211,-0.66016 0.66145998,0.66145998 0 0 0 -0.66211,-0.66211 z m 19.1289,0 a 0.66145998,0.66145998 0 0 0 -0.66211,0.66211 0.66145998,0.66145998 0 0 0 0.66211,0.66016 h 5.73829 a 0.66145998,0.66145998 0 0 0 0.6621,-0.66016 0.66145998,0.66145998 0 0 0 -0.6621,-0.66211 z M 8.2042873,274.26211 a 0.66145998,0.66145998 0 0 0 -0.662109,0.6621 0.66145998,0.66145998 0 0 0 0.662109,0.66211 h 8.5585937 a 0.66145998,0.66145998 0 0 0 0.662109,-0.66211 0.66145998,0.66145998 0 0 0 -0.662109,-0.6621 z m 17.0468747,0 a 0.66145998,0.66145998 0 0 0 -0.660156,0.6621 0.66145998,0.66145998 0 0 0 0.660156,0.66211 h 10.220702 a 0.66145998,0.66145998 0 0 0 0.66211,-0.66211 0.66145998,0.66145998 0 0 0 -0.66211,-0.6621 z m 16.089842,0 a 0.66145998,0.66145998 0 0 0 -0.66015,0.6621 0.66145998,0.66145998 0 0 0 0.66015,0.66211 h 8.4668 a 0.66145998,0.66145998 0 0 0 0.66016,-0.66211 0.66145998,0.66145998 0 0 0 -0.66016,-0.6621 z m 18.87305,0 a 0.66145998,0.66145998 0 0 0 -0.66211,0.6621 0.66145998,0.66145998 0 0 0 0.66211,0.66211 h 21.78515 a 0.66145998,0.66145998 0 0 0 0.66016,-0.66211 0.66145998,0.66145998 0 0 0 -0.66016,-0.6621 z M 6.0753813,269.89883 a 0.66145998,0.66145998 0 0 0 -0.66211,0.66015 0.66145998,0.66145998 0 0 0 0.66211,0.66211 H 84.126164 a 0.66145998,0.66145998 0 0 0 0.66211,-0.66211 0.66145998,0.66145998 0 0 0 -0.66211,-0.66015 z m 55.2480427,-38.7793 a 0.66145998,0.66145998 0 0 0 -0.92578,0.13281 l -4.12695,5.50196 a 0.66145998,0.66145998 0 0 0 0.13281,0.92578 0.66145998,0.66145998 0 0 0 0.92578,-0.13282 l 4.125,-5.50195 a 0.66145998,0.66145998 0 0 0 -0.13086,-0.92578 z m 3.88282,4.58984 -5.41016,4.24805 a 0.66145998,0.66145998 0 0 0 -0.11328,0.92774 0.66145998,0.66145998 0 0 0 0.92969,0.11328 l 5.41211,-4.24805 a 0.66145998,0.66145998 0 0 0 0.11132,-0.92969 0.66145998,0.66145998 0 0 0 -0.92968,-0.11133 z m 3.99804,5.54297 a 0.66145998,0.66145998 0 0 0 -0.50586,0.006 l -6.32812,2.70508 a 0.66145998,0.66145998 0 0 0 -0.34766,0.86719 0.66145998,0.66145998 0 0 0 0.86719,0.34961 l 6.32812,-2.70508 a 0.66145998,0.66145998 0 0 0 0.34766,-0.86914 0.66145998,0.66145998 0 0 0 -0.36133,-0.35352 z m 1.42774,6.26758 -6.8125,0.97656 a 0.66145998,0.66145998 0 0 0 -0.56055,0.75 0.66145998,0.66145998 0 0 0 0.74805,0.56055 l 6.8125,-0.97656 a 0.66145998,0.66145998 0 0 0 0.56054,-0.74805 0.66145998,0.66145998 0 0 0 -0.74804,-0.5625 z m -42.931643,6.13086 -6.8125,0.97656 a 0.66145998,0.66145998 0 0 0 -0.560547,0.74805 0.66145998,0.66145998 0 0 0 0.748047,0.56055 l 6.8125,-0.97657 a 0.66145998,0.66145998 0 0 0 0.560547,-0.74804 0.66145998,0.66145998 0 0 0 -0.748047,-0.56055 z m 36.343753,-0.39844 a 0.66145998,0.66145998 0 0 0 -0.73633,0.57813 0.66145998,0.66145998 0 0 0 0.57812,0.73437 l 6.83399,0.81836 a 0.66145998,0.66145998 0 0 0 0.73633,-0.57812 0.66145998,0.66145998 0 0 0 -0.57813,-0.73438 z M 20.98749,248.07266 a 0.66145998,0.66145998 0 0 0 -0.736328,0.57812 0.66145998,0.66145998 0 0 0 0.578125,0.73633 l 6.833984,0.81836 a 0.66145998,0.66145998 0 0 0 0.736329,-0.57813 0.66145998,0.66145998 0 0 0 -0.578125,-0.73633 z m 1.792969,-6.30274 a 0.66145998,0.66145998 0 0 0 -0.859375,0.36719 0.66145998,0.66145998 0 0 0 0.369141,0.85937 l 6.388671,2.55664 a 0.66145998,0.66145998 0 0 0 0.859375,-0.36718 0.66145998,0.66145998 0 0 0 -0.36914,-0.85938 z m 2.876953,-5.75195 a 0.66145998,0.66145998 0 0 0 -0.435547,0.25781 0.66145998,0.66145998 0 0 0 0.132813,0.92773 l 5.509765,4.1211 a 0.66145998,0.66145998 0 0 0 0.925782,-0.13477 0.66145998,0.66145998 0 0 0 -0.134766,-0.92578 l -5.507813,-4.12109 a 0.66145998,0.66145998 0 0 0 -0.490234,-0.125 z m 4.271484,-4.54883 a 0.66145998,0.66145998 0 0 0 -0.111328,0.92969 l 4.251953,5.40429 a 0.66145998,0.66145998 0 0 0 0.929693,0.11133 0.66145998,0.66145998 0 0 0 0.11132,-0.92969 l -4.253903,-5.40429 a 0.66145998,0.66145998 0 0 0 -0.927735,-0.11133 z m 5.791018,-3.42773 a 0.66145998,0.66145998 0 0 0 -0.34766,0.86914 l 2.70703,6.32031 a 0.66145998,0.66145998 0 0 0 0.86914,0.34765 0.66145998,0.66145998 0 0 0 0.34766,-0.86914 l -2.70703,-6.32031 a 0.66145998,0.66145998 0 0 0 -0.86914,-0.34765 z m 6.48242,-1.8125 a 0.66145998,0.66145998 0 0 0 -0.56055,0.74804 l 0.97852,6.80664 a 0.66145998,0.66145998 0 0 0 0.74805,0.56055 0.66145998,0.66145998 0 0 0 0.56054,-0.75 l -0.97656,-6.80469 a 0.66145998,0.66145998 0 0 0 -0.75,-0.56054 z m 6.73242,-0.0742 a 0.66145998,0.66145998 0 0 0 -0.73633,0.57812 l -0.81836,6.82617 a 0.66145998,0.66145998 0 0 0 0.57813,0.73438 0.66145998,0.66145998 0 0 0 0.73437,-0.57813 l 0.82032,-6.82617 a 0.66145998,0.66145998 0 0 0 -0.57813,-0.73437 z m 6.52149,1.66796 a 0.66145998,0.66145998 0 0 0 -0.86133,0.36719 l -2.5586,6.38086 a 0.66145998,0.66145998 0 0 0 0.36719,0.86133 0.66145998,0.66145998 0 0 0 0.85938,-0.36719 l 2.56054,-6.38281 a 0.66145998,0.66145998 0 0 0 -0.36718,-0.85938 z m -10.68164,7.33985 c -7.59644,0.62798 -13.986819,6.57335 -14.957036,14.49804 -0.34104,2.78567 -0.155385,5.27511 0.808594,7.75977 a 0.66145998,0.66145998 0 0 0 0.855469,0.37695 0.66145998,0.66145998 0 0 0 0.376953,-0.85547 c -0.878159,-2.26346 -1.049435,-4.48383 -0.726563,-7.12109 1.0228,-8.35419 8.538023,-14.28841 16.798833,-13.2793 8.26079,1.00913 14.12436,8.57746 13.10156,16.93164 -0.14822,1.21062 -0.35869,2.07287 -0.75977,3.16797 a 0.66145998,0.66145998 0 0 0 0.39453,0.84961 0.66145998,0.66145998 0 0 0 0.84766,-0.39453 c 0.4283,-1.16942 0.67237,-2.17279 0.83008,-3.46094 1.10882,-9.05679 -5.2763,-17.30956 -14.25391,-18.40625 -1.1222,-0.13708 -2.2312,-0.15611 -3.3164,-0.0664 z m 0.89843,6.52734 -0.45703,0.46875 c 0,0 -7.26696,7.44305 -14.310545,14.64649 -3.521793,3.60171 -6.987495,7.14308 -9.460938,9.66406 -1.236721,1.26049 -2.225263,2.26747 -2.847656,2.89648 -0.311196,0.31451 -0.532572,0.5365 -0.640625,0.64258 -0.0085,0.008 -0.01054,0.0107 -0.01758,0.0176 a 0.66145998,0.66145998 0 0 0 -0.01563,0 c -0.02967,0.0319 -0.05199,0.0553 -0.07227,0.0781 -0.01014,0.0114 -0.01932,0.0207 -0.03711,0.043 -0.0089,0.0111 -0.01626,0.019 -0.04687,0.0684 -0.03061,0.0493 0.57975,1.01173 0.580078,1.01172 3.28e-4,-10e-6 0.35965,-0.11724 0.382813,-0.13477 0.02316,-0.0175 0.03077,-0.026 0.03906,-0.0332 0.01659,-0.0144 0.02621,-0.0229 0.03711,-0.0332 0.02181,-0.0205 0.04579,-0.0444 0.07617,-0.0742 0.121544,-0.11932 0.341577,-0.3402 0.654297,-0.65625 0.625441,-0.63208 1.614279,-1.63737 2.851563,-2.89843 2.474567,-2.52213 5.940852,-6.06405 9.46289,-9.66602 1.237986,-1.26608 1.304518,-1.33504 2.515623,-2.57422 l 6.72657,6.37891 4.35546,-4.48633 4.72852,4.48633 6.88867,-7.0918 1.98633,1.9043 5.96484,5.71875 9.03711,8.93164 a 0.66145998,0.66145998 0 0 0 0.93555,-0.006 0.66145998,0.66145998 0 0 0 -0.006,-0.93555 l -9.04492,-8.9375 -5.9707,-5.72656 -2.45899,-2.35547 z m 0.0312,1.86133 10.40625,9.97656 -5.9707,6.14844 -4.72852,-4.48633 -4.35742,4.48633 -5.76367,-5.4668 c 4.88852,-5.00251 10.08089,-10.31695 10.41406,-10.6582 z m -27.396431,26.35352 c -3.5e-5,0 0.04864,0.0866 0.06055,0.10547 a 0.66145998,0.66145998 0 0 0 -0.404297,0.0137 c 0.06805,-0.029 0.344049,-0.11915 0.34375,-0.11915 z M 4.2257713,240.4418 c -0.6320817,1.95471 -1.1300137,3.96963 -1.4843747,6.03515 l 1.302735,0.22461 c 0.3436407,-2.00304 0.8266167,-3.95832 1.4394527,-5.85351 z m 78.3867227,-7.73829 -1.15625,0.64258 c 0.87927,1.58233 1.6613,3.22747 2.33593,4.92774 l 1.22852,-0.48828 c -0.69583,-1.75368 -1.50136,-3.4501 -2.4082,-5.08204 z" />
  </g>
</svg>
