<?xml version="1.0" encoding="UTF-8" standalone="no"?>
<!-- Created with Inkscape (http://www.inkscape.org/) -->

<svg
   width="141.89369mm"
   height="33.281452mm"
   viewBox="0 0 141.89369 33.281452"
   version="1.1"
   id="svg1"
   inkscape:version="1.3.2 (091e20e, 2023-11-25, custom)"
   sodipodi:docname="saturday.svg"
   xmlns:inkscape="http://www.inkscape.org/namespaces/inkscape"
   xmlns:sodipodi="http://sodipodi.sourceforge.net/DTD/sodipodi-0.dtd"
   xmlns="http://www.w3.org/2000/svg"
   xmlns:svg="http://www.w3.org/2000/svg">
  <sodipodi:namedview
     id="namedview1"
     pagecolor="#ffffff"
     bordercolor="#999999"
     borderopacity="1"
     inkscape:showpageshadow="2"
     inkscape:pageopacity="0"
     inkscape:pagecheckerboard="0"
     inkscape:deskcolor="#d1d1d1"
     inkscape:document-units="mm"
     inkscape:zoom="0.73890575"
     inkscape:cx="305.85768"
     inkscape:cy="-317.36118"
     inkscape:window-width="1350"
     inkscape:window-height="1237"
     inkscape:window-x="1797"
     inkscape:window-y="115"
     inkscape:window-maximized="0"
     inkscape:current-layer="layer1" />
  <defs
     id="defs1" />
  <g
     inkscape:label="Layer 1"
     inkscape:groupmode="layer"
     id="layer1"
     transform="translate(-18.281506,-70.51944)">
    <path
       d="m 37.774311,90.135685 c 0,1.666554 -0.747076,3.012249 -2.241228,4.037084 -1.494152,1.015257 -3.539033,1.522886 -6.134643,1.522886 -1.436685,0 -2.739279,-0.134091 -3.907782,-0.402272 -1.168503,-0.268181 -4.363898,1.204286 -4.443561,0.463185 0,0 -2.960898,-5.969962 -0.781276,-7.268158 0.952287,-0.567188 2.883041,1.661642 2.883041,1.661642 0.258603,0.18198 0.555518,0.383116 0.890745,0.603408 0.344804,0.210713 0.828488,0.440583 1.451051,0.689608 0.536362,0.220292 1.144558,0.41185 1.824589,0.574674 0.680031,0.153247 1.407952,0.22987 2.183761,0.22987 1.015257,0 1.767122,-0.110146 2.255595,-0.330438 0.488473,-0.229869 0.732709,-0.565096 0.732709,-1.005679 0,-0.392694 -0.143668,-0.675242 -0.431005,-0.847644 -0.287337,-0.18198 -0.833278,-0.354382 -1.637821,-0.517206 -0.383116,-0.0862 -0.905111,-0.177191 -1.565986,-0.27297 -0.651297,-0.105357 -1.245127,-0.22987 -1.781489,-0.373538 -1.465418,-0.383116 -2.552509,-0.976946 -3.261274,-1.781489 -0.708764,-0.814121 -1.063146,-1.82459 -1.063146,-3.031405 0,-1.551619 0.732709,-2.839846 2.198127,-3.864681 1.474996,-1.034413 3.486354,-1.55162 6.034075,-1.55162 1.206815,0 2.360952,0.124513 3.46241,0.373538 1.111036,0.239448 5.780728,-1.329595 5.204653,-1.685881 -2.195683,-1.357969 -0.769957,6.778536 -1.562552,8.449686 -0.341858,0.72079 -0.690024,-1.359839 -1.487074,-1.907811 -0.766232,-0.526784 -1.64261,-0.953 -2.629133,-1.278649 -0.976945,-0.335227 -1.968258,-0.50284 -2.973937,-0.50284 -0.833277,0 -1.537253,0.114935 -2.111926,0.344805 -0.565096,0.229869 -0.847644,0.555518 -0.847644,0.976945 0,0.383116 0.129302,0.675242 0.387905,0.876378 0.258603,0.201136 0.866799,0.402272 1.824589,0.603407 0.526784,0.105357 1.09188,0.210714 1.695288,0.316071 0.612985,0.09578 1.225971,0.220291 1.838956,0.373538 1.360061,0.354382 2.365741,0.914689 3.017038,1.680921 0.651297,0.756654 0.976945,1.704866 0.976945,2.844635 z m 14.929524,0.404667 -0.228947,-2.430601 c -0.06224,-0.660792 -2.953287,-0.291917 -3.767408,-0.18656 -0.814121,0.09578 -1.431896,0.210713 -1.853323,0.344804 -0.517206,0.162825 -0.914689,0.402272 -1.192448,0.718343 -0.268181,0.306493 -0.402272,0.713553 -0.402272,1.221181 0,0.335227 0.02873,0.608197 0.0862,0.818911 0.05747,0.210713 0.201135,0.411849 0.431006,0.603407 0.220291,0.191558 0.483683,0.335227 0.790176,0.431006 0.306493,0.0862 2.511781,-0.371144 3.163078,-0.371144 0.517206,0 1.039201,-0.105357 1.565986,-0.31607 0.536362,-0.210714 0.875752,-0.688782 1.407951,-0.833277 z m -1.726393,3.000276 c -0.277759,0.210713 -0.622564,0.464527 -1.034413,0.761442 -0.411849,0.296915 -0.799754,0.531574 -1.163715,0.703976 -0.507628,0.229869 -1.034412,0.397483 -1.580353,0.50284 -0.54594,0.114935 -1.144558,0.172402 -1.795855,0.172402 -1.532464,0 -2.815902,-0.474106 -3.850315,-1.422318 -1.034413,-0.948212 -1.551619,-2.159816 -1.551619,-3.634812 0,-1.178081 0.263392,-2.14066 0.790176,-2.887736 0.526785,-0.747076 1.273861,-1.336117 2.241228,-1.767122 0.95779,-0.431005 2.145449,-0.737498 3.562978,-0.919478 1.417529,-0.18198 2.887736,-0.316071 4.410622,-0.402272 0,0 0.0077,-0.0584 0,-0.0862 -0.188097,-0.680073 -0.36396,-1.503729 -1.091881,-1.838956 -0.72792,-0.344805 -1.800644,-0.517207 -3.218173,-0.517207 -0.852433,0 -1.762333,0.153247 -2.729701,0.45974 -0.967367,0.296915 -1.075808,0.649869 -1.497235,0.812693 0,0 -1.555615,2.29456 -2.427296,1.784726 -2.265693,-1.325173 1.937921,-6.818758 2.474041,-7.585952 0.312345,-0.44697 0.325087,1.473444 1.551058,1.281886 0.722681,0.207936 1.152817,0.591847 3.706646,-0.301703 2.757569,-0.964836 5.061919,0.45495 6.364513,1.36485 1.312172,0.900322 1.968258,2.317851 1.968258,4.252586 0,0 2.101165,4.980398 1.302127,7.345275 -0.951399,2.815813 -3.762632,7.464611 -6.62641,6.277313 -1.407984,-0.583738 0.536152,-4.614535 0.195319,-4.355973 z m 20.199785,3.6548 c -0.427626,0.700124 -1.144559,-1.835 -1.767122,-1.758377 -0.622563,0.0862 -1.384006,0.129302 -2.284329,0.129302 -2.011358,0 -3.510299,-0.407061 -4.496822,-1.221182 -0.976946,-0.814121 -1.465419,-2.207705 -1.465419,-4.180752 0,0 2.503006,-6.692123 0,-7.542594 -1.161054,-0.394503 -1.279992,3.26788 -2.356479,2.698052 -1.908212,-1.010093 -1.262116,-7.130981 0.230186,-8.074791 0.804848,-0.509028 2.126293,1.871229 2.126293,1.871229 0,0 -1.535843,-4.039643 -0.414334,-5.569131 1.106481,-1.508993 4.029835,-2.664838 5.586399,-1.566611 2.016537,1.42276 0,7.135742 0,7.135742 0,0 3.455273,-3.348648 4.841627,-2.262882 1.626243,1.273642 -0.02122,4.561376 -1.703374,5.768392 -0.833215,0.597867 -3.138253,0 -3.138253,0 v 5.718005 c 0,0.565095 0.0048,1.058357 0.01437,1.479785 0.0096,0.421427 0.0862,0.799754 0.229869,1.13498 0.134091,0.335227 0.368749,0.603408 0.703976,0.804544 0.344804,0.191558 0.842855,0.287337 1.494152,0.287337 0.268181,0 0.617774,-0.05747 1.048779,-0.172402 0.440583,-0.114935 0.747076,-0.220292 0.919478,-0.316071 0,0 0.580394,-4.520512 0.90853,-3.426001 1.731669,5.776048 0.862589,6.869341 -0.477527,9.063426 z m 19.165371,-4.599681 -5.172064,2.654535 v -1.781489 c -0.95779,0.727921 -1.834168,1.283439 -2.629133,1.666555 -0.794965,0.373538 -1.743177,0.560307 -2.844635,0.560307 -1.781489,0 -3.155918,-0.512418 -4.123285,-1.537253 -0.95779,-1.024835 -1.436685,-2.538142 -1.436685,-4.539923 0,0 0.385891,-5.523372 1.427151,-8.065214 0.837596,-2.044672 1.849002,-6.750476 3.773648,-5.526654 1.643633,1.045134 0.248487,8.19955 0,11.092037 -0.06971,0.81145 0.02394,1.494152 0.07183,2.040092 0.05747,0.536362 0.181979,0.981734 0.373538,1.336116 0.18198,0.354383 0.45495,0.612986 0.81891,0.77581 0.373538,0.162824 0.890744,0.244236 1.551619,0.244236 0.440583,0 0.929056,-0.08141 1.465419,-0.244236 0.536362,-0.162824 1.053568,-0.402271 1.551619,-0.718342 0.478145,-0.303438 -5.369623,-9.995932 -1.979597,-12.959103 1.794141,-1.568232 7.151661,1.523094 7.151661,1.523094 -1.466924,-0.312412 3.652128,11.604999 4e-6,13.479432 z m 16.579342,-8.551604 c -0.009,0.144611 -0.30705,0.01229 -0.45974,0 -0.35826,-0.02884 -1.06314,-0.172402 -1.06314,-0.172402 -0.48309,-0.07834 -0.89554,-0.05747 -1.22119,-0.05747 -0.73749,0 -1.38879,0.04789 -1.95389,0.143669 -0.56509,0.09578 -1.17329,0.258603 -1.82459,0.488472 0,0 1.80079,6.309854 0,8.628022 -1.516847,1.952648 -7.826406,4.553576 -7.335806,2.175848 0.740677,-3.589742 5.796396,-10.632799 3.498822,-14.132187 -0.770346,-1.173298 2.578939,-2.703725 3.836984,-2.00178 0.71988,0.401667 -0.892181,3.135255 0,2.370529 1.13977,-0.976945 2.13109,-1.623453 2.97394,-1.939524 0.84285,-0.325649 1.61866,-0.488473 2.32743,-0.488473 0.18198,0 0.38776,0.0085 0.61777,0.01437 0,0 4.34484,-0.648741 3.48437,0.08926 -1.88812,1.61938 -2.76944,3.076555 -2.88096,4.881666 z m 19.92156,12.252358 c -0.40899,2.03309 -5.06252,0.535654 -6.47419,-1.046219 -0.3822,-0.42828 0,-1.680921 0,-1.680921 -0.89075,0.727921 -1.72402,1.264283 -2.49983,1.609087 -0.77581,0.344805 -1.67135,0.517207 -2.6866,0.517207 -1.96347,0 -3.53424,-0.756654 -4.71233,-2.269962 -1.17808,-1.513308 -1.76712,-3.5534 -1.76712,-6.120276 0,-1.369639 0.19635,-2.581243 0.58904,-3.634812 0.40227,-1.063147 0.94821,-1.973047 1.63782,-2.729701 0.6513,-0.718342 1.44148,-1.27386 2.37053,-1.666554 0.92906,-0.402272 1.85812,-0.603408 2.78717,-0.603408 0.96737,0 1.75754,0.105357 2.37053,0.316071 0.62256,0.201136 1.91079,1.467851 1.91079,0.77581 0,0 -0.60188,-3.407342 0,-4.959541 0.80252,-2.069638 4.59869,-7.249526 4.521,-5.046467 -0.70685,20.044566 3.57103,18.49746 1.95319,26.539686 z m -6.47419,-5.499941 c 0.63861,-2.269811 2.48008,-4.065223 0,-7.916132 -0.20718,-0.321701 -0.74708,-0.263392 -1.14935,-0.330437 -0.40227,-0.06705 -0.77101,-0.100568 -1.10624,-0.100568 -1.36007,0 -2.38011,0.426216 -3.06014,1.278649 -0.68003,0.842855 -1.02005,2.016148 -1.02005,3.519877 0,1.580353 0.27297,2.729701 0.81891,3.448043 0.54594,0.708765 1.42232,1.063147 2.62913,1.063147 0.46932,0 0.96737,-0.0862 1.49416,-0.258603 0.52678,-0.18198 0.99131,-0.416639 1.39358,-0.703976 z m 21.519,-1.048151 c 0.74675,-0.511929 -1.69276,-2.069454 -1.69276,-2.069454 -0.18145,-0.22183 -1.51741,0.133932 -2.26996,0.244236 -0.62219,0.0912 -1.85332,0.344804 -1.85332,0.344804 -0.53488,0.09951 -1.06322,0.326025 -1.19245,0.718343 l -0.40227,1.221181 c -0.10543,0.32007 0.0287,0.608197 0.0862,0.818911 0.0575,0.210713 0.20113,0.411849 0.431,0.603407 0.22029,0.191558 0.48221,0.339576 0.79018,0.431006 0.30508,0.09057 0.78539,0.129301 1.43669,0.129301 0.51721,0 1.56598,-0.31607 1.56598,-0.31607 z m -1.69276,3.792219 c 0.2444,-0.24488 -0.62256,0.464527 -1.03441,0.761442 -0.41185,0.296915 -0.79975,0.531574 -1.16371,0.703976 -0.50763,0.229869 -1.03442,0.397483 -1.58036,0.50284 -0.54594,0.114935 -1.14456,0.172402 -1.79585,0.172402 -1.53247,0 -2.81591,-0.474106 -3.85032,-1.422318 -1.03441,-0.948212 -1.55162,-2.159816 -1.55162,-3.634812 0,-1.178081 0.26339,-2.14066 0.79018,-2.887736 0.52679,-0.747076 1.27386,-1.336117 2.24123,-1.767122 0.95779,-0.431005 2.14544,-0.737498 3.56297,-0.919478 1.41753,-0.18198 2.88774,-0.316071 4.41063,-0.402272 v -0.0862 c 0,-0.890744 -0.36396,-1.503729 -1.09188,-1.838956 -0.72792,-0.344805 -1.80065,-0.517207 -3.21818,-0.517207 -0.85243,0 -1.76233,0.153247 -2.7297,0.45974 -0.96737,0.296915 -1.66176,0.526784 -2.08319,0.689608 0,0 -1.4075,2.014448 -2.23198,1.600099 -2.42321,-1.217809 0.45574,-7.770578 0.45574,-7.770578 l 3.96,1.774224 c 1.13292,0.507589 2.4711,-0.301703 3.70665,-0.301703 2.94041,0 5.06192,0.45495 6.36451,1.36485 1.31217,0.900322 1.96826,2.317851 1.96826,4.252586 0,0 3.18996,10.204308 -0.52085,12.391742 -1.68652,0.994164 -5.4545,-2.277064 -5.4545,-2.277064 z m 17.16839,-3.993983 0.0319,-14.245951 c 0,0 7.04546,-2.766827 6.68297,-0.676965 -1.70544,9.83226 -2.84492,21.868478 -2.84492,21.868478 0,0 -11.89764,6.025863 -13.54604,2.830945 -1.48455,-2.87734 8.15645,-5.726361 8.15645,-5.726361 -6.71444,-5.196079 -9.5312,-10.86157 -7.1898,-15.588237 l 1.52428,-3.077114 c 2.2806,-4.603926 7.1693,21.69582 7.18516,14.615205 z"
       id="text1"
       style="font-weight:bold;font-size:29.4233px;font-family:Sans;-inkscape-font-specification:'Sans, Bold';fill:#ffffff;stroke:#000000;stroke-width:1.323;stroke-linecap:round;stroke-linejoin:round"
       transform="scale(0.9722437,1.0285487)"
       aria-label="saturday"
       sodipodi:nodetypes="scssssccccscscccccscscssscscssccccscscccssccscacssccsssscscacsccsscscssssscscsssscsscsscssccsccssscccscsssscccssssssssssscssssscsssssacsssscccscsssscssscscsccssssssscsscsssccsssscscscsccscsscsacsscscscsss" />
  </g>
</svg>
