<?xml version="1.0" encoding="UTF-8" standalone="no"?>
<!-- Created with Inkscape (http://www.inkscape.org/) -->

<svg
   width="118.51069mm"
   height="24.817717mm"
   viewBox="0 0 118.51069 24.817716"
   version="1.1"
   id="svg1"
   inkscape:version="1.3.2 (091e20e, 2023-11-25, custom)"
   sodipodi:docname="thursday.svg"
   xmlns:inkscape="http://www.inkscape.org/namespaces/inkscape"
   xmlns:sodipodi="http://sodipodi.sourceforge.net/DTD/sodipodi-0.dtd"
   xmlns="http://www.w3.org/2000/svg"
   xmlns:svg="http://www.w3.org/2000/svg">
  <sodipodi:namedview
     id="namedview1"
     pagecolor="#ffffff"
     bordercolor="#999999"
     borderopacity="1"
     inkscape:showpageshadow="2"
     inkscape:pageopacity="0"
     inkscape:pagecheckerboard="0"
     inkscape:deskcolor="#d1d1d1"
     inkscape:document-units="mm"
     inkscape:zoom="1.4778115"
     inkscape:cx="220.59647"
     inkscape:cy="-63.945909"
     inkscape:window-width="1350"
     inkscape:window-height="1237"
     inkscape:window-x="1938"
     inkscape:window-y="116"
     inkscape:window-maximized="0"
     inkscape:current-layer="layer1" />
  <defs
     id="defs1" />
  <g
     inkscape:label="Layer 1"
     inkscape:groupmode="layer"
     id="layer1"
     transform="translate(-23.566738,-81.796034)">
    <path
       d="m 35.316148,99.919012 c 0,0.450248 -0.940051,0.208468 -1.451376,0.271398 -0.511325,0.0708 -1.139478,0.0454 -1.876169,0.1062 l -3.563611,0.29423 c -1.596836,0.13184 -1.736846,-2.679807 -1.657629,-4.298557 l 0.324321,-6.627301 c 0,0 -1.334747,0.392001 -1.746371,0 -0.712592,-0.678623 -0.712592,-2.20053 0,-2.879153 0.411624,-0.392001 1.746371,0 1.746371,0 0,0 -0.81422,-2.791318 0,-3.787737 1.513532,-1.852216 5.624582,-3.560235 7.166817,-1.729618 1.35323,1.606271 -2.918887,5.517355 -2.918887,5.517355 0,0 3.039256,-0.892598 3.976534,0 0.712592,0.678623 0.712592,2.20053 0,2.879153 -0.937278,0.892598 -3.976534,0 -3.976534,0 v 4.696322 c 0,0.464126 0.0039,0.869253 0.0118,1.21538 0.0079,0.346127 0.0708,0.656856 0.188797,0.932185 0.110132,0.275329 0.302862,0.495592 0.578191,0.660789 0.283195,0.157331 0.692255,0.235996 1.227179,0.235996 0.220263,0 0.507392,-0.0472 0.861386,-0.141598 0.361861,-0.0944 0.61359,-0.180931 0.755188,-0.259596 0,0 0.270557,-0.07946 0.353994,0 0.721353,0.686967 -1e-6,2.914552 -1e-6,2.914552 z m 17.922791,0.117998 c 1.405885,2.19356 -6.424871,2.01351 -6.347182,0 0.05977,-1.549151 0,-6.572491 0,-6.572491 0,-0.534925 -0.02753,-1.065916 -0.0826,-1.592974 -0.05507,-0.534925 -0.149465,-0.928251 -0.283195,-1.17998 -0.157331,-0.291062 -0.389394,-0.503459 -0.696189,-0.63719 -0.298928,-0.133731 -0.719788,-0.200596 -1.262579,-0.200596 -0.38546,0 -0.778787,0.06293 -1.17998,0.188796 -0.393327,0.125865 -0.822054,0.326462 -1.286179,0.601791 0,0 1.568186,5.115106 1.945925,8.280747 0.237221,1.988027 -6.254472,3.111887 -6.193855,1.111897 0.136041,-4.488545 -1.885019,-11.297336 -2.075653,-17.125055 -0.067,-2.048192 4.656167,-2.530678 6.323583,-1.235441 1.782672,1.384767 0,6.572491 0,6.572491 0.755187,-0.58999 1.478909,-1.042316 2.171164,-1.356977 0.700122,-0.314662 1.474976,-0.471993 2.324562,-0.471993 1.431709,0 2.548757,0.416927 3.351144,1.25078 0.810253,0.833853 1.21538,2.080699 1.21538,3.740538 0,0 0.461953,6.107849 2.075654,8.625657 z m 15.034065,0 c 0,0 -3.246683,0.95352 -4.24793,0 -0.362137,-0.344874 0,-1.463176 0,-1.463176 -0.786654,0.597857 -1.506442,1.054117 -2.159365,1.368778 -0.652922,0.306788 -1.431709,0.460188 -2.336361,0.460188 -1.463176,0 -2.592024,-0.420858 -3.386544,-1.262575 -0.786653,-0.841719 -1.17998,-2.084632 -1.17998,-3.728738 0,0 -0.0147,-5.414096 1.621604,-7.390217 1.034309,-1.249109 3.236207,-3.043505 4.530985,-2.038478 2.059254,1.598426 -1.88106,7.375529 -1.88106,7.375529 -0.165716,0.649764 0.01967,1.227179 0.059,1.675572 0.0472,0.440526 0.149465,0.80632 0.306795,1.097382 0.149464,0.291062 0.37366,0.503458 0.672589,0.637189 0.306795,0.133731 0.731588,0.200597 1.274379,0.200597 0.361861,0 0.763054,-0.06687 1.20358,-0.200597 0.440526,-0.133731 0.865319,-0.330394 1.274379,-0.58999 0,0 -1.563219,-5.925495 0,-9.392645 0.540878,-1.199642 2.666761,1.1482 3.339832,2.285566 1.890276,3.194217 2.854135,10.965615 0.908097,10.965615 z m 12.813505,-10.752595 -0.08571,0.285696 c -0.417481,0.713017 0.31122,0.825614 -0.289408,0.908528 -0.72969,0.100731 -0.807716,0.165726 -1.075181,0.165726 -0.605723,0 -1.140648,0.03933 -1.604773,0.117998 -0.464126,0.07867 -0.963651,0.212396 -1.498576,0.401193 0,0 0.516398,5.419971 0,8.873454 -0.175424,1.17317 -3.664152,-0.679493 -3.664152,-0.679493 0,0 -2.892442,-8.999396 -0.583777,-12.571688 0.938272,-1.451827 3.471001,-3.131323 4.896571,-2.10025 1.141195,0.825393 -0.648642,4.047218 -0.648642,4.047218 0.936118,-0.802387 1.750305,-1.333378 2.44256,-1.592974 0.692255,-0.267462 1.329445,-0.401193 1.911568,-0.401193 0.149465,0 0.318595,0.0039 0.507392,0.0118 0.188797,0.0079 0.537335,-0.09441 0.495592,0.0354 z m 14.727239,6.551865 c -0.380564,1.682 -2.109757,2.921433 -3.656965,3.809922 -1.486319,0.853528 -3.847476,1.226018 -5.038517,1.250778 -1.191041,0.0248 -1.282551,-0.11308 -1.897876,-0.38778 -0.615325,-0.27469 -1.40804,-0.588793 -1.808237,-1.168378 -0.949901,-1.375693 -2.510081,-4.098052 -0.972962,-4.851728 0.584692,-0.286684 1.362356,1.358985 1.362356,1.358985 0.212397,0.149465 0.453108,0.31909 0.731588,0.495592 0.280122,0.177542 0.781332,0.405196 1.19178,0.566391 0.486399,0.191023 0.984525,0.365219 1.498575,0.471992 0.587682,0.122067 1.192209,0.200982 1.793571,0.188797 0.624645,-0.01266 1.452982,-0.08728 1.852569,-0.271396 0.402827,-0.185614 0.60179,-0.464125 0.60179,-0.825986 0,-0.322528 -0.117998,-0.554591 -0.353994,-0.696188 -0.235996,-0.149465 -0.684389,-0.291062 -1.345178,-0.424793 -0.314661,-0.0708 -0.743387,-0.145532 -1.286178,-0.224197 -0.534925,-0.08653 -1.02265,-0.188796 -1.463176,-0.306795 -1.20358,-0.314661 -2.096432,-0.802386 -2.678556,-1.463175 0,0 -0.953052,-1.618086 -0.873185,-2.489759 0.109835,-1.198739 0.427523,-2.207866 1.80537,-3.174148 1.211447,-0.849586 3.249653,-1.151527 4.955918,-1.274379 0.951266,-0.06849 1.937979,0.106819 2.843753,0.306795 0.911421,0.201223 4.366331,2.346867 3.919528,2.675668 0,0 -1.07263,1.081494 -1.783764,1.312666 -0.115394,0.03751 0.289506,0.450518 -0.365794,0 -0.629323,-0.432659 -1.349111,-0.78272 -2.159364,-1.050182 -0.802387,-0.275329 -1.616573,-0.412993 -2.442559,-0.412993 -0.684389,0 -1.26258,0.0944 -1.734572,0.283195 -0.464125,0.188797 -0.696188,0.456259 -0.696188,0.802387 0,0.314661 0.106198,0.554591 0.318594,0.719788 0.212397,0.165197 0.711922,0.330394 1.498576,0.495591 0.432659,0.08653 0.896785,0.173064 1.392377,0.259596 0.503458,0.07867 1.006916,0.18093 1.510375,0.306795 1.117048,0.291062 1.943034,0.751254 2.477959,1.380577 0.534924,0.621457 0.983618,1.535363 0.802386,2.336362 z m 15.251492,7.07313 c -0.41047,1.48808 -3.79388,-2.8724 -3.79388,-2.8724 v -1.380577 c -0.73159,0.597857 -1.41597,1.038383 -2.05316,1.321578 -0.63719,0.283189 -1.37272,0.424789 -2.20657,0.424789 -1.61264,0 -2.90275,-0.621455 -3.870334,-1.864365 -0.967584,-1.242913 -0.316253,-3.875952 -0.316253,-5.984184 0,-1.124915 -0.06576,-0.977249 0.256767,-1.842568 0.330395,-0.873185 0.730139,-2.4081 1.29653,-3.029556 0.53493,-0.589991 0.32601,-0.440696 1.08752,-0.7665 0.7646,-0.327125 1.50733,-0.464142 2.28916,-0.495592 0.65474,-0.02634 1.44351,0.08653 1.94697,0.259596 0.51132,0.165197 1.03444,0.377594 1.56937,0.63719 0,0 -1.77806,-4.823286 0,-5.640307 1.45506,-0.668602 2.63026,-0.947118 3.79388,2.872401 1.16362,3.819519 1.63668,12.426985 0,18.360495 z m -3.79388,-6.530339 c 0.55733,-1.584422 2.98505,0.425501 0,-6.501693 -0.29893,-0.125865 -0.62147,-0.210994 -0.94398,-0.271395 -0.29852,-0.05591 -0.60819,-0.128516 -0.90859,-0.0826 -0.90332,0.138074 -1.95284,0.351506 -2.51336,1.050183 -0.55653,0.693705 -0.83778,1.655906 -0.83778,2.890952 0,1.297979 0.2242,2.241963 0.67259,2.831953 0.44839,0.582124 1.16818,0.873186 2.15936,0.873186 0.38546,0 0.79452,-0.0708 1.22718,-0.212397 0.43266,-0.149464 1.0134,-0.205249 1.14458,-0.578189 z m 16.28373,0.200596 v -2.761154 c -0.57426,0.0472 -1.19572,0.114066 -1.86437,0.200597 -0.66866,0.07867 -1.17605,0.173064 -1.52218,0.283195 -0.42479,0.133731 -0.75125,0.330395 -0.97938,0.58999 -0.22026,0.251729 -0.33039,0.586057 -0.33039,1.002984 0,0.275329 0.0236,0.499525 0.0708,0.672589 0.0472,0.173063 0.1652,0.33826 0.354,0.495591 0.18093,0.157331 0.39726,0.275329 0.64899,0.353995 0.25173,0.0708 0.64505,0.106198 1.17998,0.106198 0.42479,0 0.85352,-0.08653 1.28618,-0.259596 0.44053,-0.173064 0.82599,-0.401194 1.15638,-0.684389 z m 0,2.053166 c -0.22813,0.173064 -0.51133,0.381527 -0.84959,0.62539 -0.33826,0.243863 -0.65685,0.436593 -0.95578,0.578191 -0.41693,0.188796 -0.84959,0.326466 -1.29798,0.412996 -0.44839,0.0944 -0.94005,0.14159 -1.47498,0.14159 -1.25865,0 -2.31276,-0.38939 -3.16234,-1.168176 -0.84959,-0.778787 -1.27438,-1.773904 -1.27438,-2.985351 0,-0.967584 0.15491,-1.801788 0.64899,-2.371761 0.84043,-0.969522 -0.91408,0.75417 1.84077,-1.451376 0.78665,-0.353994 1.7621,-0.605723 2.92635,-0.755187 1.16425,-0.149465 2.37176,-0.259596 3.62254,-0.330395 v -0.0708 c 0,-0.731587 -0.29893,-1.235046 -0.89679,-1.510375 -0.59785,-0.283195 -1.4789,-0.424793 -2.64315,-0.424793 -0.70013,0 -1.44745,0.125865 -2.24197,0.377594 -0.79452,0.243863 -1.36484,0.43266 -1.71097,0.566391 0,0 -0.29066,0.08024 -0.38939,0 -1.41173,-1.147263 -0.87567,-5.236225 -0.87567,-5.236225 0.44839,-0.117998 2.05172,1.782815 3.05863,1.625484 1.01479,-0.165197 2.02957,-0.247795 3.04435,-0.247795 2.41503,0 4.15746,0.37366 5.22731,1.120981 1.07772,0.739455 1.21381,1.95069 1.61658,3.492742 1.56836,6.004604 1.49978,6.104846 2.14052,9.787202 0.349,2.00574 -6.35305,-0.77215 -6.35305,-0.77215 z m 14.4677,-5.901112 c 1.66378,-0.0069 0.26923,-1.653905 2.42449,-4.155035 0.92321,-1.071361 6.10323,-7.083061 3.94852,-1.144978 -7.29743,20.110752 -6.71634,15.490112 -6.71634,15.490112 l -4.34247,-1.72961 c -4.76576,-1.898215 -0.30236,-3.101936 1.84091,-2.608583 1.81826,0.418538 -7.63831,-8.253969 -5.15652,-11.797798 0.82494,-1.177958 1.5233,1.160237 4.46033,0 4.22559,-1.669268 1.1485,5.955827 3.54108,5.945892 z"
       id="text1"
       style="font-weight:bold;font-size:24.166px;font-family:Sans;-inkscape-font-specification:'Sans, Bold';opacity:1;fill:#ffffff;stroke:#1a1a1a;stroke-width:1.323;stroke-linecap:round;stroke-dasharray:none"
       transform="scale(0.97587388,1.0247226)"
       aria-label="thursday"
       sodipodi:nodetypes="scssscsscsscsscssccsccssssscccsccssssccscssssccscsssscccsscsasccssscscssccssscaascascsaaasscccccssasssscscssccccasccssssccsaccszsscaasscscscccccssccscsccsccsssscscscsccsccscssccasscssasa" />
  </g>
</svg>
