<?xml version="1.0" encoding="UTF-8" standalone="no"?>
<!-- Created with Inkscape (http://www.inkscape.org/) -->

<svg
   width="114.82238mm"
   height="18.728344mm"
   viewBox="0 0 114.8224 18.728344"
   version="1.1"
   id="svg1"
   sodipodi:docname="weoutwest.svg"
   inkscape:version="1.3.2 (091e20e, 2023-11-25, custom)"
   xmlns:inkscape="http://www.inkscape.org/namespaces/inkscape"
   xmlns:sodipodi="http://sodipodi.sourceforge.net/DTD/sodipodi-0.dtd"
   xmlns="http://www.w3.org/2000/svg"
   xmlns:svg="http://www.w3.org/2000/svg">
  <sodipodi:namedview
     id="namedview1"
     pagecolor="#ffffff"
     bordercolor="#999999"
     borderopacity="1"
     inkscape:showpageshadow="2"
     inkscape:pageopacity="0"
     inkscape:pagecheckerboard="0"
     inkscape:deskcolor="#d1d1d1"
     inkscape:document-units="mm"
     inkscape:zoom="1.0449705"
     inkscape:cx="202.39805"
     inkscape:cy="53.590028"
     inkscape:window-width="707"
     inkscape:window-height="432"
     inkscape:window-x="2202"
     inkscape:window-y="246"
     inkscape:window-maximized="0"
     inkscape:current-layer="layer1" />
  <defs
     id="defs1" />
  <g
     inkscape:label="Layer 1"
     inkscape:groupmode="layer"
     id="layer1"
     transform="translate(-45.586047,-65.164799)">
    <path
       d="m 68.472242,70.86757 c -2.551447,5.772157 -3.504862,6.776632 -5.639615,10.414364 -0.561164,0.956254 -2.968156,0.459463 -2.968156,0.459463 -2.675176,0.0095 -2.116278,-7.741529 -2.116278,-7.741529 0,0 0.100742,6.117782 -2.008253,7.75629 -0.875562,0.680237 -2.729428,0.946297 -3.326235,0.01187 -2.22847,-3.489141 -7.425217,-7.889153 -5.271009,-11.521914 0.891489,-1.503367 3.49193,-1.514202 5.230153,-0.37321 2.33575,1.533217 1.820379,8.181967 1.820379,8.181967 l 2.116317,-8.196056 c 0,0 1.205907,-4.377886 2.806866,-4.032618 4.043941,0.87213 2.26148,12.202964 2.26148,12.202964 0,0 -0.544323,-6.742958 1.850219,-8.195104 1.65159,-1.00159 6.025046,-0.733153 5.244132,1.033513 z m 9.9987,6.404663 c -0.354976,2.681732 -8.101331,0.477162 -8.101331,0.477162 0.04415,0.702854 0.306888,1.239825 0.788186,1.610912 0.486521,0.371067 1.199365,0.55492 2.138537,0.55156 0.594809,-0.0021 1.170983,-0.113364 1.728516,-0.333725 0.557537,-0.220356 0.99762,-0.456267 1.320253,-0.707736 l 0.313058,-0.0011 0.539581,4.332654 c 0.08503,0.682733 -1.766682,-1.569473 -2.329783,-1.450288 -0.563101,0.119173 -1.186405,0.179999 -1.869913,0.182445 -1.763557,0.0064 -3.116312,-0.393613 -4.058262,-1.19977 -0.941955,-0.806157 -1.415501,-1.957506 -1.420638,-3.454052 -0.0051,-1.480567 0.434386,-2.653824 1.318418,-3.519775 0.889231,-0.871293 2.108666,-1.309715 3.658299,-1.31526 1.429627,-0.0051 2.5044,0.362482 3.228303,1.098885 0.721231,0.733685 1.086212,1.790922 1.090969,3.175624 0,0 1.732159,-0.02435 1.655807,0.552464 z M 74.01094,76.050737 c -0.01773,-0.601757 -0.165372,-1.053926 -0.442946,-1.356505 -0.277576,-0.30258 -0.899208,1.817599 -1.483581,1.819691 -0.542632,0.0019 -0.79759,-2.123088 -1.146185,-1.834247 -0.34859,0.288842 -0.542667,0.750222 -0.582231,1.384141 z"
       id="text3"
       style="-inkscape-font-specification:'Sans, Bold';fill:#ffffff;stroke:#1a1a1a;stroke-width:1.323;stroke-linecap:round;stroke-linejoin:round;stroke-dasharray:none"
       aria-label="We"
       sodipodi:nodetypes="ssscssasccscsssccssccssssscsssscssscc" />
    <path
       d="m 92.244905,74.757089 c 0.0065,1.895978 -0.520508,3.405077 -1.58106,4.527298 -1.060572,1.116896 -2.530029,1.678708 -4.408373,1.685428 -1.873126,0.0066 -5.696543,0.07295 -6.763434,-1.037603 -1.069564,-1.113331 0.745807,-3.236153 0.739295,-5.13213 -0.0065,-1.911952 0.521779,-3.422444 1.581034,-4.535286 1.061907,-1.115628 2.734403,-0.811726 4.400547,-1.685402 4.278403,-2.243466 3.338581,0.544605 4.412014,1.653863 1.073418,1.103935 1.613412,2.611879 1.619977,4.523832 z m -3.973308,3.025983 c 0.290941,-0.363197 0.506011,-0.790035 0.645203,-1.280511 0.139175,-0.495802 0.207618,-1.076564 0.205332,-1.742285 -0.0024,-0.713655 -0.08542,-1.320503 -0.248876,-1.820549 -0.163467,-0.500045 -0.376169,-0.904046 -0.63811,-1.212008 -0.267198,-0.318594 -0.575834,-0.549163 -0.925907,-0.691709 -0.344857,-0.142567 -0.705122,-0.213173 -1.080789,-0.21183 -0.380888,0.0014 -0.740665,0.07189 -1.079335,0.211573 -0.333452,0.139653 -0.640506,0.369773 -0.921159,0.69033 -0.259857,0.299176 -0.472362,0.71269 -0.637515,1.240538 -0.159953,0.522507 -0.23874,1.129934 -0.236361,1.822286 0.0024,0.708329 0.08278,1.312523 0.24102,1.812586 0.163448,0.494719 0.376152,0.898721 0.638112,1.212011 0.261962,0.313285 0.567988,0.543864 0.918081,0.691735 0.350092,0.14787 0.71819,0.221115 1.104295,0.219734 0.386103,-0.0014 0.753691,-0.07726 1.102758,-0.227633 0.349052,-0.155698 0.653468,-0.393786 0.913251,-0.714268 z m 15.604263,2.520521 c 0.30651,1.143914 -2.65314,1.160131 -3.53367,0.368195 -0.24551,-0.220808 -0.002,-0.990594 -0.002,-0.990594 -0.520379,0.406625 -0.996728,0.717228 -1.429048,0.931809 -0.432361,0.209256 -0.94855,0.314957 -1.548569,0.317105 -0.970486,0.0035 -1.721645,-0.277434 -2.249125,-0.846749 -0.525011,-0.56665 -0.787327,-1.40853 -0.791146,-2.521618 0,0 -1.126033,-4.237864 -0.02002,-5.839712 0.790738,-1.145232 2.873898,-2.395985 3.90925,-1.466002 1.073116,0.963904 -1.077542,4.191075 -1.077542,4.191075 -0.112025,0.435718 0.131398,2.192391 0.158561,2.495866 0.03237,0.298132 0.0022,0.898415 0.1073,1.095097 0.09981,0.196699 0.02506,0.110314 0.22364,0.200144 0.203805,0.08982 0.709661,0.363723 1.06968,0.362434 0.240014,-8.19e-4 0.505943,-0.04708 0.797825,-0.138666 0.291882,-0.09158 0.573164,-0.225742 0.843874,-0.40246 0,0 -2.141559,-6.351366 -0.0219,-6.358979 0,0 2.81752,-0.949299 2.81752,-0.01012 0,4.030377 -0.2257,4.989089 0.74537,8.613175 z m 7.56393,0.248559 c 0.001,0.312973 -0.623,0.143362 -0.96199,0.187182 -0.33899,0.04914 -0.75371,0.07459 -1.24417,0.07635 -1.0957,0.0039 -1.64556,-0.262974 -2.452,-0.446473 -0.68123,-0.15501 -1.93486,-0.493822 -1.75819,-1.187929 0.61754,-2.426259 0.93749,-5.551764 0.93749,-5.551764 0,0 -0.88431,0.27614 -1.1583,0.0041 -0.46108,-0.457801 -0.4648,-1.488158 -0.007,-1.949235 0.27205,-0.273992 1.15832,-0.0041 1.15832,-0.0041 0,0 -0.61128,-1.95779 -0.009,-2.564362 0.66174,-0.666452 2.15106,-0.671856 2.81751,-0.01012 0.60657,0.60228 0.009,2.564363 0.009,2.564363 0,0 2.63909,-2.267816 3.5908,-1.404126 0.85785,0.778508 -0.0238,2.64354 -0.94658,3.34392 -0.7003,0.531541 -2.63751,0.0094 -2.63751,0.0094 l 0.011,3.17949 c 6.7e-4,0.314221 0.005,0.588488 0.011,0.822803 0.007,0.234313 0.049,0.444532 0.12736,0.630655 0.0738,0.186141 0.20206,0.334806 0.38503,0.445992 0.18821,0.105856 0.45969,0.158131 0.8145,0.156862 0.14608,-5.13e-4 0.33642,-0.03317 0.571,-0.09791 0.2398,-0.06477 0.40656,-0.123957 0.50029,-0.177542 0,0 0.17926,-0.05597 0.23479,-8.21e-4 0.4667,0.463506 0.007,1.973265 0.007,1.973265 z"
       id="text6"
       style="-inkscape-font-specification:'Sans, Bold';fill:#ffffff;stroke:#1a1a1a;stroke-width:1.323;stroke-linecap:round;stroke-linejoin:round;stroke-dasharray:none"
       aria-label="Out"
       sodipodi:nodetypes="scssssscsccssccscccscsssccssccsssssscccsscsssscssscsscsscsscssccsccsss" />
    <text
       xml:space="preserve"
       style="font-weight:bold;font-size:11.2889px;font-family:Sans;-inkscape-font-specification:'Sans, Bold';fill:#000000;fill-opacity:1;stroke-width:1.323;stroke-linecap:round;stroke-linejoin:round;stroke-dasharray:none"
       id="text15"
       y="77.827354"
       x="89.373558"
       transform="rotate(-0.20088032)"><tspan
         id="tspan15"
         style="fill:#000000;fill-opacity:1;stroke-width:1.323;stroke-linejoin:round;stroke-dasharray:none"
         x="89.373558"
         y="77.827354"
         sodipodi:role="line" /></text>
    <path
       d="m 132.06031,68.772937 c 0.50831,0.06858 1.42348,7.491107 -2.55618,11.813155 -1.06485,1.156462 -2.81213,1.270118 -3.86761,0.105105 -1.79615,-1.982545 -2.11628,-7.741526 -2.11628,-7.741526 0,0 0.10074,6.11778 -2.00825,7.756287 -0.87557,0.68024 -3.03971,1.08296 -3.32625,0.01187 0,0 -5.67042,-8.62674 -3.17925,-11.883893 0.63554,-0.83096 2.32113,-0.664169 3.1384,-0.01112 2.18276,1.744151 1.82037,8.181971 1.82037,8.181971 0,0 0.35932,-5.988242 2.11634,-8.196058 1.03748,-1.303662 2.26991,-1.693485 3.71936,-0.871903 3.04303,1.724861 1.34899,9.04225 1.34899,9.04225 0,0 -0.33407,-6.442536 1.8502,-8.195106 0.79562,-0.63837 3.20992,-1.020039 3.06016,-0.01103 z m 10.53032,7.903149 -6.44897,0.02307 c 0.0442,0.702854 0.71062,1.474368 1.19191,1.845454 0.48652,0.371068 0.79564,0.320378 1.7348,0.317016 0.59483,-0.0021 1.17099,-0.113364 1.72853,-0.333725 0.55754,-0.220354 0.99761,-0.456266 1.32023,-0.707736 l 0.31307,-0.0011 0.36707,3.38295 c -0.63566,0.26324 -1.59311,-0.619772 -2.1562,-0.500589 -0.5631,0.119173 -1.18641,0.180001 -1.86992,0.182446 -1.76355,0.0064 -3.1163,-0.393612 -4.05827,-1.199769 -0.94194,-0.806156 -1.41549,-1.957507 -1.42063,-3.454051 -0.006,-1.480565 0.43439,-2.653823 1.31842,-3.519774 0.88925,-0.871294 2.10866,-1.309715 3.65831,-1.31526 1.42962,-0.0051 2.16779,0.689632 3.2283,1.098885 0.58288,0.224934 1.96829,-0.616798 1.72009,0.744542 z m -2.80766,-1.675583 c -0.0177,-0.601757 -0.16532,-1.053926 -0.44293,-1.356505 -0.27757,-0.302581 -0.70856,-0.452825 -1.29295,-0.450732 -0.54261,0.0019 -0.98821,0.147336 -1.33682,0.436177 -0.34858,0.288845 -0.54267,0.750224 -0.58223,1.38414 z m 12.43799,2.751555 c 0.002,0.926686 -0.40122,1.676413 -1.21322,2.249185 -0.81199,0.567445 -1.92498,0.853698 -3.33896,0.858759 -0.78264,0.0027 -1.49249,-0.06922 -2.12958,-0.216065 -0.63706,-0.146844 -1.53406,-0.06336 -1.53568,-0.489808 l -0.009,-2.364645 0.25827,-8.88e-4 c 0.17336,-5.96e-4 0.30335,0.211948 0.4864,0.333787 0.18823,0.116499 0.45215,0.243371 0.79176,0.380627 0.29263,0.121446 0.62431,0.226777 0.99508,0.315991 0.37073,0.08387 0.41293,0.120394 0.83399,0.084 0.66386,-0.05739 0.89619,0.0053 1.16189,-0.11811 0.26565,-0.128769 0.82036,-0.346113 0.81953,-0.591101 -6.8e-4,-0.218355 -0.0796,-0.375186 -0.23642,-0.47049 -0.15687,-0.100623 -0.4546,-0.195429 -0.89321,-0.2844 -0.20888,-0.04717 -0.4934,-0.09675 -0.85359,-0.148731 -0.35502,-0.0573 -0.67873,-0.125378 -0.9712,-0.204232 -0.79902,-0.210174 -1.39237,-0.538252 -1.78,-0.984236 -0.38765,-0.45131 -0.58264,-1.01249 -0.58496,-1.683537 -0.002,-0.862775 0.39373,-1.580521 1.19006,-2.153235 0.80153,-0.57806 0.22695,-0.283989 1.57023,-0.960376 0.58719,-0.295669 3.00045,0.150467 3.60095,0.286792 0.60569,0.130986 1.07839,0.273082 1.41807,0.426316 l 0.007,2.268781 -0.24264,8.88e-4 c -0.4184,-0.291424 -0.89662,-0.526713 -1.43466,-0.705864 -0.53284,-0.184498 -1.0732,-0.275768 -1.62103,-0.273806 -0.45394,0.0016 -0.83723,0.06692 -1.14984,0.195845 -0.30739,0.128915 -0.4607,0.310549 -0.45989,0.544882 6.7e-4,0.213031 0.0717,0.375214 0.21298,0.486553 0.14128,0.111341 0.47297,0.221993 0.99513,0.331965 0.28717,0.05755 0.59521,0.115026 0.92411,0.172447 0.33413,0.05205 0.66827,0.120098 1.00251,0.20412 0.74157,0.194404 1.29049,0.504001 1.64674,0.928792 0.35626,0.419466 0.53547,0.946084 0.53763,1.579852 z m 7.49939,2.737275 c 0.001,0.313003 -1.11371,0.04547 -1.66284,0.132889 -0.18395,0.02928 -0.0528,0.1289 -0.54332,0.130649 -1.09572,0.0039 -1.83302,-0.09165 -2.45202,-0.670271 -0.59851,-0.559475 -0.80252,-1.224734 -0.80629,-2.321845 l -0.0143,-4.194049 -1.78495,1.033564 c 0,0 -0.16599,-2.337367 0.61963,-2.978697 0.2991,-0.244161 1.15829,-0.0041 1.15829,-0.0041 0,0 -2.35931,-2.33823 -1.62034,-3.32527 0.89739,-1.198643 3.46059,-0.391364 4.42886,0.750788 0.55276,0.652021 0.009,2.564362 0.009,2.564362 0,0 1.50679,-0.403825 2.05704,0.0053 0.54077,0.402074 0.98756,1.39245 0.58715,1.93445 -0.5224,0.707129 -2.63749,0.0094 -2.63749,0.0094 l 0.0598,1.067274 c 0.0174,0.310287 -0.044,2.700702 -0.0375,2.935016 0.007,0.234315 0.0489,0.444534 0.12736,0.630657 0.0738,0.186142 0.20205,0.334803 0.38504,0.445994 0.18818,0.105857 0.4597,0.15813 0.81449,0.156861 0.1461,-5.12e-4 1.03272,-1.204206 1.26729,-1.268946 0.23979,-0.06477 -0.28973,1.047092 -0.19599,0.993491 l 0.23477,-8.19e-4 z"
       id="text16"
       style="-inkscape-font-specification:'Sans, Bold';fill:#ffffff;stroke:#1a1a1a;stroke-width:1.323;stroke-linecap:round;stroke-linejoin:round;stroke-dasharray:none"
       aria-label="West"
       sodipodi:nodetypes="csscasascsscsscccsscccsssscscascsssccscsscscsccscscccccscssccccscssccccsscsasacccscsscssssccsccccs" />
  </g>
</svg>
