<?xml version="1.0" encoding="UTF-8" standalone="no"?>
<!-- Created with Inkscape (http://www.inkscape.org/) -->

<svg
   width="106.43848mm"
   height="17.608419mm"
   viewBox="0 0 106.4385 17.608419"
   version="1.1"
   id="svg1"
   inkscape:version="1.3.2 (091e20e, 2023-11-25, custom)"
   sodipodi:docname="dates.svg"
   xmlns:inkscape="http://www.inkscape.org/namespaces/inkscape"
   xmlns:sodipodi="http://sodipodi.sourceforge.net/DTD/sodipodi-0.dtd"
   xmlns="http://www.w3.org/2000/svg"
   xmlns:svg="http://www.w3.org/2000/svg">
  <sodipodi:namedview
     id="namedview1"
     pagecolor="#ffffff"
     bordercolor="#999999"
     borderopacity="1"
     inkscape:showpageshadow="2"
     inkscape:pageopacity="0"
     inkscape:pagecheckerboard="0"
     inkscape:deskcolor="#d1d1d1"
     inkscape:document-units="mm"
     inkscape:zoom="4.1798821"
     inkscape:cx="328.95664"
     inkscape:cy="-22.129811"
     inkscape:window-width="1350"
     inkscape:window-height="1237"
     inkscape:window-x="1903"
     inkscape:window-y="116"
     inkscape:window-maximized="0"
     inkscape:current-layer="layer1" />
  <defs
     id="defs1" />
  <g
     inkscape:label="Layer 1"
     inkscape:groupmode="layer"
     id="layer1"
     transform="translate(-73.224427,-97.949422)">
    <path
       d="m 83.008807,105.18838 c 0,0.95289 -0.119834,1.83953 -0.359523,2.65994 -0.23968,0.82039 -0.604196,1.51086 -1.093547,2.07139 -0.529297,0.60639 -1.185924,1.06245 -1.969883,1.36819 -0.783958,0.30063 -1.697744,0.45096 -2.741358,0.45096 -0.369508,0 -0.768978,-0.0229 -1.198408,-0.0688 -0.429429,-0.0459 -1.601817,-0.30635 -0.846376,-0.1223 v -2.23955 h 0.299602 c 0.149802,0.0714 0.36202,0.14779 0.636655,0.2293 0.279629,0.0815 0.659124,0.1223 1.138487,0.1223 0.389482,0 0.771475,-0.0484 1.145978,-0.14522 0.374502,-0.10192 0.696575,-0.25989 0.966217,-0.47391 0.294609,-0.2293 0.536787,-0.51466 0.726534,-0.85607 0.189749,-0.34652 0.317079,-0.76181 0.381992,-1.24589 -0.434422,0.25478 -0.838885,0.45097 -1.213388,0.58855 -0.369508,0.13243 -0.831395,0.19873 -1.385659,0.19873 -0.419441,0 -0.821407,-0.0509 -1.205897,-0.15287 -0.379495,-0.10705 -0.726535,-0.27008 -1.041117,-0.48919 -0.414449,-0.30065 -0.746509,-0.69556 -0.996177,-1.18474 -0.244675,-0.49429 -0.367012,-1.11596 -0.367012,-1.86502 0,-1.21788 0.414449,-2.20899 1.243347,-2.97333 0.833894,-0.76946 1.924944,-1.15418 3.273152,-1.15418 0.694079,0 1.308263,0.09429 1.842552,0.28281 0.539285,0.18344 1.003668,0.46625 1.39315,0.84843 0.454396,0.43823 0.796442,0.99621 1.026136,1.67393 0.229696,0.67773 0.344543,1.50323 0.344543,2.47652 z m -2.868689,-0.42805 c 0.609188,0 -0.05992,-1.13125 -0.179762,-1.52871 -0.114847,-0.40256 -0.274634,-0.71339 -0.479363,-0.93252 -0.144807,-0.16305 -0.312083,-0.28025 -0.501832,-0.35158 -0.189749,-0.0714 -0.389484,-0.10706 -0.599205,-0.10706 -0.194741,0 -0.381992,0.0356 -0.561753,0.10706 -0.174768,0.0663 -0.344542,0.18344 -0.509324,0.35158 -0.154795,0.16308 -0.282124,0.37709 -0.381993,0.64207 -0.09487,0.26497 -0.142311,0.5809 -0.142311,0.9478 0,0.35669 0.05242,0.65734 0.157291,0.90193 0.10486,0.23949 0.24967,0.43058 0.434424,0.57326 0.174768,0.13756 0.379496,0.23441 0.614184,0.29047 0.239682,0.056 0.499337,0.084 0.778965,0.084 0.224702,0 0.469377,-0.028 0.734025,-0.084 0.264649,-0.0611 0.469377,-0.12231 0.614184,-0.18346 0,-0.056 0.0024,-0.13506 0.0075,-0.23694 0.0099,-0.10705 -0.189754,-0.4739 0.01497,-0.4739 z m 11.013253,3.9386 -6.316992,-1.14107 -0.172025,-3.69351 5.886936,1.49217 z m 9.659279,2.81827 c -1.925586,2.17431 -6.874406,3.35228 -8.64928,1.0533 -0.666175,-0.86289 0.302528,-2.42791 1.204176,-3.04061 0.648417,-0.44062 2.351879,0 2.351879,0 0,0 1.417858,-4.5976 0,-6.01546 -0.554343,-0.55434 -1.797536,0.55434 -2.351879,0 -0.437789,-0.43779 0,-1.85738 0,-1.85738 0,-0.35952 0.704061,-0.0204 1.03363,-0.0611 0.329555,-0.0459 0.604201,-0.12231 0.823909,-0.2293 0.259644,-0.12744 0.454391,-0.293 0.584212,-0.49683 0.129904,-0.20383 0.204734,-0.45861 0.224709,-0.76436 0,0 2.677497,-2.043381 3.683376,-1.228847 2.777318,2.248997 -1.204175,10.653317 -1.204175,10.653317 0,0 1.757463,-0.54198 2.299443,0 0.4684,0.4684 0.43918,1.49136 0,1.98727 z m 11.67963,0.61442 c -1.72348,2.13956 -6.35034,1.39938 -8.21922,-0.61442 -0.45062,-0.48556 -0.46841,-1.5189 0,-1.98731 0.55434,-0.55434 2.35187,0 2.35187,0 0,0 1.41786,-4.5976 0,-6.01546 -0.55434,-0.55434 -1.79753,0.55434 -2.35187,0 -0.43779,-0.43779 0,-1.85738 0,-1.85738 0.35951,0 0.70406,-0.0204 1.03362,-0.0611 0.32957,-0.0459 0.60421,-0.12231 0.8239,-0.2293 0.25967,-0.12744 0.4544,-0.293 0.58423,-0.49683 0.1299,-0.20383 -0.39735,-1.775237 -0.37738,-2.080983 0.046,-0.703476 2.64385,0.897486 3.25331,2.018833 1.38865,2.555 -0.17202,8.72226 -0.17202,8.72226 0,0 1.68501,-0.45823 2.29944,0 0.72531,0.54092 1.34172,1.89706 0.77412,2.60169 z m 17.66639,-0.61442 c -0.23048,0.96402 -2.16895,0.57884 -2.97356,0 -0.65661,-0.47237 -0.11486,-1.82833 -0.77147,-2.3007 -1.11875,-0.80483 -3.22251,-1.03326 -4.1345,0 -0.92121,1.04371 1.63498,3.31218 0.5187,4.14397 -1.22323,0.91149 -3.58849,-0.44088 -4.18883,-1.84327 -1.58779,-3.70904 1.45597,-8.35078 4.11953,-11.38121 1.05387,-1.199035 3.80914,-0.851593 3.80914,-0.851593 -0.007,2.916023 4.21474,9.749363 3.62099,12.232803 z m -4.4416,-4.38738 -1.37069,-4.08164 -1.37067,4.08164 z m 14.27603,4.38738 -6.22294,1.57996 3.52652,-2.52776 c -0.49933,0.38727 -0.95622,0.68283 -1.37068,0.88665 -0.41444,0.19874 -0.90879,0.29811 -1.48303,0.29811 -0.92876,0 -1.6453,-0.27262 -2.14964,-0.81786 -0.49933,-0.54524 -0.749,-1.35036 -0.749,-2.41535 0,0 -0.83209,-3.92116 0,-5.58743 0.76149,-1.52489 4.40213,-4.747299 4.0876,-3.072119 l -1.37621,7.329569 c -0.0799,0.42539 0.0122,0.79492 0.0375,1.08539 l 0.19473,0.71084 c 0.0949,0.18853 0.2372,0.32612 0.42694,0.41274 0.19475,0.0867 0.46438,0.12994 0.80892,0.12994 0.2297,0 0.48437,-0.0433 0.76399,-0.12994 0.27963,-0.0867 0.54928,-0.21401 0.80892,-0.38216 0,0 -1.00575,-4.32312 0,-6.08426 0.91372,-1.59999 5.78301,-4.3417 4.76072,-2.8088 -1.32164,1.98176 -2.69206,10.94807 -2.06434,11.39248 z m 10.72575,-0.98601 c 0,0.80511 -0.11238,1.48284 -0.33704,2.03318 -0.2247,0.55033 -0.53929,0.98092 -0.94376,1.29175 -0.40446,0.31594 -0.89381,0.54269 -1.46805,0.68027 -0.56924,0.14269 -1.21339,0.21403 -1.93243,0.21403 -0.58422,0 -1.16096,-0.0356 -1.73019,-0.10705 -0.56426,-0.0714 -3.16828,-0.13078 -4.80449,-0.16369 -1.21191,-0.0244 0.95701,-4.08385 2.15031,-2.93779 l 1.25832,1.20851 1.45206,0.0459 1.28451,-0.0333 c 0.49917,-0.0129 0.9038,-0.0484 1.21338,-0.14522 0.3146,-0.0917 0.55428,-0.2242 0.71905,-0.39746 0.1548,-0.16307 0.26716,-0.37199 0.33706,-0.62678 0.07,-0.25478 0.1049,-0.56051 0.1049,-0.91722 v -0.16051 c -0.32457,0.27007 -0.68409,0.48409 -1.07857,0.64206 -0.39448,0.15797 -0.83389,0.23695 -1.31824,0.23695 -1.17843,0 -2.08722,-0.36179 -2.72639,-1.08538 -0.63915,-0.72359 -0.95873,-1.82426 -0.95873,-3.302 0,-0.70831 0.0974,-1.31979 0.29212,-1.83445 0.19475,-0.51468 0.46938,-0.9631 0.8239,-1.34526 0.32956,-0.35671 0.73403,-0.63441 1.21338,-0.83315 0.48437,-0.19874 0.97871,-0.29809 1.48304,-0.29809 0.4544,0 0.86636,0.056 1.23586,0.16814 0.37451,0.10705 0.71405,0.25734 1.01864,0.45098 0,0 -1.98153,-2.78864 -1.19276,-3.89318 1.02346,-1.433193 5.62268,-0.21758 5.36994,1.5253 -2.29395,15.81868 -1.46582,9.58341 -1.46582,9.58341 z m -2.69641,-1.71979 v -3.89055 c 0,-0.1684 -0.34454,-0.11718 -0.56925,-0.15287 -0.2247,-0.0408 -0.42693,-0.0611 -0.60669,-0.0611 -0.70906,0 -1.24085,0.20891 -1.59538,0.62677 -0.35453,0.41274 -0.5318,0.99111 -0.5318,1.73508 0,0.8255 0.14981,1.40131 0.4494,1.72743 0.30461,0.32611 0.75401,0.48918 1.34821,0.48918 0.26965,0 0.5343,-0.0433 0.79395,-0.12993 0.25966,-0.0867 0.71156,-0.0862 0.71156,-0.34396 z m 14.31249,5.1635 c 0.4586,1.75749 -4.73028,0.73713 -5.3628,-0.96552 -0.36463,-0.98152 1.97828,-2.43998 1.97828,-2.43998 -0.49933,0.38727 -0.95622,0.68283 -1.37067,0.88665 -0.41444,0.19874 -0.9088,0.29811 -1.48304,0.29811 -0.92875,0 -1.6453,-0.27262 -2.14964,-0.81786 -0.49933,-0.54524 -0.749,-1.35036 -0.749,-2.41535 0,0 -0.33299,-3.97759 0.62663,-5.58743 0.62998,-1.05684 1.86805,-2.89859 3.0309,-2.1066 1.77259,1.20727 -0.94613,6.36405 -0.94613,6.36405 -0.0637,0.42823 0.0122,0.79492 0.0375,1.08539 0.03,0.28534 0.0949,0.5223 0.19474,0.71084 0.0948,0.18853 0.23719,0.32612 0.42694,0.41274 0.19474,0.0867 0.46438,0.12994 0.80892,0.12994 0.22969,0 0.48436,-0.0433 0.76398,-0.12994 0.27964,-0.0867 0.54928,-0.21401 0.80892,-0.38216 0.25031,-0.16211 -1.43407,-4.65019 0,-6.08426 0.63555,-0.63555 2.31225,-0.81257 2.69643,0 0.93176,1.97073 -0.17434,7.73651 0.68804,11.04138 z m 9.05012,-5.17879 c -0.14069,0.78436 -1.04975,2.14783 -1.04975,2.14783 -0.41624,0.85163 -3.01902,0.67216 -4.37223,0.67216 -0.749,0 -0.25413,0.0666 -0.86332,-0.076 -0.60919,-0.14269 -1.46806,-0.0658 -1.46806,-0.47391 0,0 -0.53327,-1.7292 0,-2.26247 0.0583,-0.0583 0.0943,-0.10977 0.24719,0 0.13479,0.0968 0.2896,0.20383 0.46437,0.32103 0.17978,0.11204 0.43193,0.23439 0.7565,0.36688 0.27963,0.11718 0.59672,0.21911 0.95123,0.30575 0.35453,0.0815 0.73403,0.1223 1.13849,0.1223 0.52931,0 0.92129,-0.0587 1.17594,-0.1758 0.25467,-0.1223 0.38199,-0.30064 0.38199,-0.53504 0,-0.20893 -0.0749,-0.35926 -0.2247,-0.45098 -0.1498,-0.0968 -0.43442,-0.18854 -0.85386,-0.27515 -0.19973,-0.0459 -0.47188,-0.0943 -0.81642,-0.14524 -0.33955,-0.056 -0.64913,-0.12231 -0.92877,-0.19872 -0.76399,-0.20384 -1.33073,-0.51977 -1.70024,-0.9478 -0.36951,-0.43314 -0.55427,-0.97073 -0.55427,-1.61278 0,-0.82551 0.38199,-1.51088 1.14598,-2.05612 0.76898,-0.55034 4.05393,-2.31767 5.38215,-2.31767 0.62916,0 0.71044,-0.25315 0.73252,-0.01 l 0.19195,2.1136 c 0.0654,0.72062 0.51166,1.65911 0,2.17077 -0.0547,0.0547 -0.15683,0.0177 -0.23218,0 -0.4966,-0.11645 -0.85637,-0.50702 -1.37068,-0.68027 -0.50932,-0.17835 -1.02613,-0.26753 -1.55045,-0.26753 -0.43441,0 -0.80142,0.0611 -1.10103,0.18344 -0.2946,0.12231 -0.44191,0.29554 -0.44191,0.51977 0,0.20381 0.0674,0.35923 0.20223,0.46625 0.1348,0.10705 0.45191,0.21402 0.95123,0.32103 0.27465,0.056 0.56925,0.11204 0.88384,0.16816 0.31956,0.0509 0.63915,0.11717 0.95871,0.19872 0.70906,0.18853 1.4205,0.38612 1.57292,0.8943 0,0 0.27807,0.78832 0.35899,1.19691 0.0206,0.10402 0.0504,0.21216 0.0316,0.31653 z m 7.27101,1.06645 -0.90562,1.75401 c -0.15039,0.29127 -0.83382,-0.1061 -1.19092,0.0688 -1.06722,0.52269 -1.10882,1.88243 -2.34439,2.68575 -0.90054,0.5855 -1.17456,-3.10781 -1.10804,-4.15531 0.0908,-1.43062 1.58228,-4.09789 0.34406,-5.41725 -0.25287,-0.26944 -0.84725,0.26128 -1.10853,0 -0.43959,-0.43959 -0.43959,-1.42545 0,-1.86504 0.26128,-0.26128 0.84725,0.26128 1.10853,0 0.57831,-0.57831 -0.4557,-1.77443 0,-2.45356 0.7311,-1.089561 2.64637,-2.346138 3.64256,-1.49218 1.02688,0.880261 -0.94614,3.94574 -0.94614,3.94574 0,0 1.9292,-0.59495 2.52415,0 0.43959,0.43959 0.43959,1.42545 0,1.86504 -0.59495,0.59495 -2.52415,0 -2.52415,0 v 3.04211 c 0,0.30065 0.003,0.56307 0.008,0.7873 0.005,0.22419 0.0454,0.42548 0.11985,0.60383 0.07,0.17834 0.19228,0.32102 0.36701,0.42804 0.17977,0.10192 0.43943,0.15287 0.77897,0.15287 0.13982,0 0.32208,-0.0305 0.54678,-0.0917 0.22969,-0.0611 0.38948,-0.11718 0.47935,-0.16816 0,0 0.17315,-0.0543 0.22471,0 0.0712,0.075 -0.0162,0.30971 -0.0162,0.30971 z"
       id="text2"
       style="font-weight:bold;font-size:11.2889px;font-family:Sans;-inkscape-font-specification:'Sans, Bold';fill:#ffffff;stroke:#1a1a1a;stroke-width:1.323;stroke-linecap:round;stroke-linejoin:round;stroke-dasharray:none"
       aria-label="9-11 August"
       sodipodi:nodetypes="ssccssccccscccccscccscsccsssscsscccscccscccsscccccssscsssccscscssssscsscccssscsssssssssssccccccccscsssscccsscssccsccscssccsccsscsssssccsccssccscscscssscsssscscsacccssccsssscsccssscscscccccscscssssacssccccsssscsasssssssscsasccsccccsccs" />
  </g>
</svg>
