<?xml version="1.0" encoding="UTF-8" standalone="no"?>
<!-- Created with Inkscape (http://www.inkscape.org/) -->

<svg
   width="116.82711mm"
   height="18.144167mm"
   viewBox="0 0 116.82712 18.144168"
   version="1.1"
   id="svg1"
   inkscape:version="1.3.2 (091e20e, 2023-11-25, custom)"
   sodipodi:docname="drawing-2.svg"
   xmlns:inkscape="http://www.inkscape.org/namespaces/inkscape"
   xmlns:sodipodi="http://sodipodi.sourceforge.net/DTD/sodipodi-0.dtd"
   xmlns="http://www.w3.org/2000/svg"
   xmlns:svg="http://www.w3.org/2000/svg">
  <sodipodi:namedview
     id="namedview1"
     pagecolor="#ffffff"
     bordercolor="#999999"
     borderopacity="1"
     inkscape:showpageshadow="2"
     inkscape:pageopacity="0"
     inkscape:pagecheckerboard="0"
     inkscape:deskcolor="#d1d1d1"
     inkscape:document-units="mm"
     inkscape:zoom="2.955623"
     inkscape:cx="206.04793"
     inkscape:cy="32.8188"
     inkscape:window-width="1350"
     inkscape:window-height="784"
     inkscape:window-x="1942"
     inkscape:window-y="330"
     inkscape:window-maximized="0"
     inkscape:current-layer="layer1" />
  <defs
     id="defs1">
    <rect
       x="113.40033"
       y="55.982441"
       width="400.48975"
       height="91.868622"
       id="rect1" />
  </defs>
  <g
     inkscape:label="Layer 1"
     inkscape:groupmode="layer"
     id="layer1"
     transform="translate(-33.832159,-92.891743)">
    <text
       xml:space="preserve"
       style="font-weight:bold;font-size:11.2889px;font-family:Sans;-inkscape-font-specification:'Sans, Bold';fill:#000000;fill-opacity:1;stroke-width:1.323;strokeLinecap:round;stroke-linejoin:round;stroke-dasharray:none"
       id="text15"
       y="94.145569"
       x="98.87365"
       transform="rotate(-0.20088032)"><tspan
         id="tspan15"
         style="fill:#000000;fill-opacity:1;stroke-width:1.323;stroke-linejoin:round;stroke-dasharray:none"
         x="98.87365"
         y="94.145569"
         sodipodi:role="line" /></text>
    <path
       style="font-weight:bold;font-size:42.6667px;font-family:Sans;-inkscape-font-specification:'Sans, Bold';white-space:pre;fill:#ffffff;stroke:#1a1a1a;stroke-width:1.323;strokeLinecap:round;stroke-linejoin:round;stroke-dasharray:none"
       d="m 45.316962,106.33936 -2.042861,0.61955 c -0.84798,0.20123 -1.693389,0.30184 -2.536229,0.30184 -1.952923,0 -3.986692,1.49607 -5.091634,0.40523 -1.104942,-1.09614 -1.152579,-4.64945 -1.152579,-6.57695 0,-1.837488 0.557609,-3.317536 1.67283,-4.440149 1.115221,-1.127907 3.075767,-1.230575 4.663889,-1.691862 1.629632,-0.473344 4.287102,-1.23836 4.971153,-1.097925 0.683005,0.14022 2.812891,0.06283 2.281836,0.834017 l -2.812658,4.084498 h -0.331485 c -0.18186,0 -0.354609,-0.267415 -0.632129,-0.468638 -0.27752,-0.206518 -0.544762,-0.381265 -0.801727,-0.524239 -0.298075,-0.169451 -0.647548,-0.315073 -1.048413,-0.436866 -0.395722,-0.121793 -0.817142,-0.182689 -1.264257,-0.182689 -0.524206,0 -0.999591,0.07943 -1.426148,0.23829 -0.42656,0.158861 -0.809434,0.402447 -1.148627,0.730758 -0.323774,0.31772 -0.580739,0.722814 -0.770893,1.215281 -0.185013,0.487171 -0.27752,1.051124 -0.27752,1.691864 0,1.30795 0.336621,2.30877 1.009867,3.00246 0.673246,0.69369 1.667694,1.04053 2.983348,1.04053 0.113062,0 0.236407,-0.003 0.370027,-0.008 0.138761,-0.005 1.212313,-0.43775 1.325378,-0.44834 0.464353,-0.0435 -0.346895,-1.52361 -0.947643,-1.89485 -0.649219,-0.4012 -1.749893,0.53965 -2.289543,0 -0.526085,-0.52609 -0.526085,-1.7059 0,-2.23199 1.248283,-1.248283 4.047735,-1.248283 5.296018,0 1.376072,1.37607 0,5.83818 0,5.83818 z m 11.34751,-3.78088 c 0,1.46681 1.098226,5.17571 0.265661,6.02296 -0.827422,0.84196 -3.505975,-1.28892 -5.006638,-1.28892 -1.500668,0 -2.667282,-0.42098 -3.499844,-1.26294 -0.827421,-0.84725 -1.241134,-2.00429 -1.241134,-3.4711 0,-1.4774 0.416281,-2.637077 1.248842,-3.479037 0.837701,-0.841959 2.001744,-1.262939 3.492136,-1.262939 1.510943,0 2.677557,0.423627 3.499843,1.270882 0.827421,0.847255 1.241134,2.004284 1.241134,3.471094 z m -3.415048,2.16845 c 0.179874,-0.2277 0.313498,-0.50041 0.400865,-0.81813 0.09251,-0.32302 0.138761,-0.76783 0.138761,-1.33443 0,-0.52424 -0.04625,-0.96375 -0.138761,-1.31854 -0.09251,-0.35479 -0.220987,-0.63809 -0.385446,-0.8499 -0.164458,-0.21711 -0.362319,-0.37068 -0.593586,-0.460698 -0.231267,-0.09002 -0.69688,3.000118 -0.964121,3.000118 -0.267245,0 -0.289861,-3.098082 -0.500573,-3.023947 -0.205569,0.07413 -0.403429,0.222407 -0.593583,0.444807 -0.169594,0.20652 -0.305787,0.48982 -0.408573,0.8499 -0.09765,0.36009 -0.146468,0.81284 -0.146468,1.35826 0,0.48717 0.04368,0.9108 0.131049,1.27088 0.08737,0.35479 0.215852,0.64074 0.385447,0.85785 0.164458,0.20652 0.359747,0.35743 0.585875,0.45275 0.231267,0.0953 0.493372,0.14297 0.786311,0.14297 0.251822,0 0.490801,-0.0424 0.716928,-0.12709 0.231267,-0.09 0.42656,-0.23829 0.585875,-0.4448 z m 10.938941,2.20815 c -0.204944,0.2482 -0.948199,0.18269 -0.948199,0.18269 -0.334049,0.0477 -0.742622,0.0715 -1.225715,0.0715 -1.079247,0 -1.883542,-0.22505 -2.412888,-0.67516 -0.524207,-0.4501 -0.786308,-1.22057 -0.786308,-2.31141 l -0.07887,-1.56453 0.108985,-2.795458 c 0,0 -1.501309,-1.129432 -1.171036,-1.748192 0.17908,-0.335503 1.140916,0 1.140916,0 0,0 -0.600972,-1.948735 0,-2.549707 0.654123,-0.654123 2.775208,0 2.775208,0 0,0 0.06407,0.0587 0.07575,0.09842 0.245122,0.833458 -0.218383,2.597103 -0.218383,2.597103 0,0 2.166038,0.556303 1.854348,1.602376 -0.247282,0.829908 -1.711713,0.189898 -1.711713,0.189898 v 3.16132 c 0,0.31243 0.0026,0.58514 0.0077,0.81813 0.0051,0.233 0.04625,0.44217 0.123342,0.6275 0.07195,0.18534 0.197864,0.33361 0.377738,0.44481 0.185014,0.10591 0.452255,0.15886 0.801727,0.15886 0.1439,0 0.331481,-0.0318 0.562748,-0.0953 0.236407,-0.0635 0.400866,-0.1218 0.493373,-0.17475 0,0 0.176757,-0.0545 0.231267,0 0.462425,0.46242 0.416398,1.45763 1e-5,1.9619 z m 10.353058,0.0794 c -0.657756,0.65776 -2.132868,0.65776 -2.790624,0 -1.042806,-1.04281 0,-4.42425 0,-4.42425 0,-0.36009 -0.01798,-0.71752 -0.05396,-1.07231 -0.03597,-0.36008 -0.09765,-0.62485 -0.185013,-0.7943 -0.102786,-0.19593 -0.254394,-0.33891 -0.454827,-0.42893 -0.195293,-0.09 -0.470245,-0.13503 -0.824853,-0.13503 -0.251822,0 -0.749981,-0.0466 -1.012086,0.0382 -0.256961,0.0847 -0.295857,0.3087 -0.599076,0.49404 0,0 1.888722,5.3875 0,6.32263 -0.934074,0.46247 -2.011427,-0.96806 -2.486727,-1.89567 -1.591129,-3.1053 -2.749428,-7.990134 -0.288477,-10.463655 0.93681,-0.941595 3.03683,-0.841952 3.983706,0.08952 0.637313,0.626946 0.104218,2.679962 0.104218,2.679962 0.0234,-0.665706 -0.145121,-0.568671 0.105721,0.741331 0.457394,-0.211814 0.963613,-0.317721 1.518654,-0.317721 0.935348,0 1.548504,0.604929 2.072707,1.166235 0.529346,0.561307 0.910638,1.076338 0.910638,2.193658 0,0 1.368555,4.43773 -1e-6,5.80629 z m 11.704327,-5.54313 c -0.274815,2.89697 -6.978769,1.61134 -6.978769,1.61134 0.04111,0.69899 0.298079,1.23382 0.770892,1.60449 0.477953,0.37067 1.179462,0.55601 2.10453,0.55601 0.585875,0 1.153767,-0.10855 1.703668,-0.32566 0.549901,-0.21711 0.984173,-0.45011 1.302807,-0.69899 h 0.308355 l 0.865434,3.60792 c -0.626993,0.25947 -2.083442,-0.86493 -2.638483,-0.74843 -0.55504,0.1165 -1.169182,0.17474 -1.842428,0.17474 -1.737074,0 -3.068144,-0.40244 -3.993212,-1.20733 -0.925071,-0.8049 -0.88277,-2.24298 -0.88277,-3.73097 0,-1.47211 -0.068,-2.345439 0.805679,-3.203285 0.878818,-0.863141 3.208181,-3.049964 5.050157,-2.607098 0.963881,0.231746 1.21752,1.570091 1.733681,2.416466 0.26502,0.434566 0.351705,0.984085 0.695536,1.359407 0.466757,0.5095 1.050362,0.60698 0.994923,1.19139 z m -3.386419,-0.0646 c -0.01543,-0.59838 -0.159315,-1.04848 -0.431696,-1.35032 -0.272381,-0.30183 -0.696373,-0.452748 -1.271972,-0.452748 -0.534486,0 -0.973894,0.142974 -1.318222,0.428918 -0.344329,0.28595 -0.537054,0.744 -0.578168,1.37415 z m 13.413497,5.60776 c -0.168702,0.91478 -2.132867,0.65776 -2.790623,0 -1.042806,-1.04281 0,-4.42425 0,-4.42425 0,-0.36009 -0.01798,-0.71752 -0.05396,-1.07231 -0.03597,-0.36008 -0.13344,-0.80563 -0.220811,-0.97508 -0.102786,-0.19593 -0.218596,-0.15813 -0.419029,-0.24815 -0.195293,-0.09 -0.470245,-0.13503 -0.824853,-0.13503 -0.251822,0 -0.508788,0.0424 -0.770889,0.12709 -0.256966,0.0847 -0.537054,0.21976 -0.840273,0.4051 0,0 1.490258,4.83237 0,6.32263 -0.654122,0.65412 -2.121082,0.65412 -2.775204,0 -2.102464,-2.10246 0,-8.92 0,-8.92 0,0 2.502729,-1.906011 3.352158,-1.093656 0.519665,0.496984 -0.576954,2.078589 -0.576954,2.078589 0.493369,-0.39715 0.966182,-0.701632 1.41844,-0.913446 0.457395,-0.211814 0.963614,-0.317721 1.518655,-0.317721 0.935347,0 2.140047,-0.385452 2.838405,0.258677 1.242612,1.14612 0.866133,4.996887 0.866133,4.996887 0.226386,1.30606 -0.721195,3.91067 -0.721195,3.91067 z M 108.7998,103.3925 c 0,0.5719 -0.11306,1.0829 -0.33919,1.533 -0.22099,0.45011 0.91561,2.7191 0.52503,3.01564 -0.45226,0.34949 -2.39315,-1.2973 -2.93792,-1.14903 -0.53962,0.14827 -1.22571,0.2224 -2.05827,0.2224 h -5.010794 c 0,0 2.883004,-5.27992 -1.802984,-11.462591 -1.575465,-2.078661 5.114508,-1.720535 7.701118,-1.385297 0.32875,0.04261 0.62578,0.235824 0.90156,0.419769 l 1.24802,0.832425 c 0.37126,0.247634 1.08879,0.402547 0.97133,0.921389 -0.10065,0.444565 0.0389,1.102978 0.0389,1.595445 0,0.571896 -0.14647,1.077601 -0.43941,1.517115 -0.29293,0.434218 -0.70664,0.773125 -1.24113,1.016705 v 0.0635 c 0.75033,0.15357 1.34392,0.47129 1.78076,0.95317 0.44198,0.48187 0.66296,1.11731 0.66296,1.90632 z m -3.79278,-4.861125 c 0,-0.195927 -0.0488,-0.391855 -0.14647,-0.587783 -0.0925,-0.195927 -0.25953,-0.341549 -0.50108,-0.436865 -0.21584,-0.08473 -0.48566,-0.129736 -0.80943,-0.135032 -0.31864,-0.01059 -0.76832,-0.01589 -1.34906,-0.01589 h -0.27752 v 2.502049 h 0.46253 c 0.46768,0 0.86597,-0.0079 1.19488,-0.02383 0.32892,-0.01589 0.58845,-0.06884 0.7786,-0.15886 0.26724,-0.121793 0.73616,-0.150726 0.81839,-0.341366 0.0822,-0.19593 -0.17084,-0.548251 -0.17084,-0.802428 z m 0.72464,4.813465 c 0,-0.37597 -0.072,-0.66456 -0.21585,-0.86579 -0.13876,-0.20652 -0.37774,-0.36008 -0.71693,-0.46069 -0.23127,-0.0688 -0.5499,-0.10591 -0.9559,-0.1112 -0.40601,-0.005 -0.83,-0.008 -1.27197,-0.008 h -0.64755 v 2.94686 l 0.0571,-0.0729 c 0.51333,-0.65553 1.58748,0.0703 1.94722,0.065 0.35976,-0.005 0.69124,-0.0741 0.99445,-0.20652 0.30836,-0.13238 0.51907,-0.30713 0.63213,-0.52424 0.11821,-0.2224 0.17731,-0.47658 0.17731,-0.76253 z m 13.7608,3.74879 c 0.24899,0.89093 -2.77521,0 -2.77521,0 l 0.17904,-0.0396 c 0.39192,-0.0866 -0.69675,0.14767 -1.17287,0.15921 l -1.95908,0.0475 c -0.95591,0 -1.6934,-0.2833 -2.21246,-0.84991 -0.51393,-0.5666 -0.41374,-2.57201 -0.48241,-3.67655 0,0 -1.59011,-3.798968 -0.28848,-4.63978 1.18046,-0.762541 3.15698,0.684565 3.72817,1.96858 0.32549,0.7317 -0.5894,2.32908 -0.5894,2.32908 -0.16032,0.41991 -0.33535,0.95267 -0.30965,1.25451 0.0308,0.29654 0.0976,0.54277 0.20043,0.7387 0.0977,0.19592 0.24411,0.3389 0.43941,0.42892 0.20043,0.09 0.47795,0.13503 0.83256,0.13503 0.23641,0 0.49851,-0.045 0.78631,-0.13503 0.2878,-0.09 0.80188,-0.0793 0.83256,-0.39715 l 0.50483,-5.228985 c 0,0 2.69789,-4.184848 3.13581,-2.843504 0.41822,1.280984 -1.63473,7.939439 -0.84956,10.748979 z m 8.88025,-6.27467 c 0,0 -0.16473,0.007 -0.24668,0 -0.19213,-0.0159 -0.38088,-0.0603 -0.57046,-0.0953 -0.27503,-0.0508 -0.54268,-0.17221 -0.82232,-0.16682 -0.3023,0.006 -0.57812,0.16155 -0.88135,0.21448 -0.30321,0.0529 -0.77393,7.3e-4 -0.97903,0.27006 -1.20626,1.58405 1.32917,4.49072 0,5.97314 -0.89568,0.99895 -3.78463,1.76156 -4.00124,0.43747 -0.39145,-2.3928 1.87606,-6.93053 1.22603,-9.357469 -0.36308,-1.355589 2.52012,-2.959301 3.64065,-2.114401 0.94022,0.708945 -0.86544,3.424998 -0.86544,3.424998 l 1.59574,-1.072307 c 0.40403,-0.271501 0.86854,-0.270062 1.24885,-0.270062 0.0976,0 0.20814,0.0026 0.33148,0.0079 0.12334,0.0053 2.23811,-1.373006 2.19888,-1.288557 z m 9.99074,5.1709 c -0.0566,0.83471 1.68735,2.6346 1.45609,3.2065 -0.23127,0.5719 -2.10611,0.49375 -2.52111,0.81841 -0.41757,0.32667 -1.17313,-0.006 -1.76415,0.13723 -0.58587,0.14827 -1.24884,0.22241 -1.98889,0.22241 -0.6013,0 -1.19488,-0.0371 -1.78076,-0.11121 l -4.35941,-1.02965 2.84847,-1.47239 -0.12414,0.45668 c 0.3392,0.13768 1.21623,-0.19456 1.70446,-0.0834 0.48823,0.1165 0.92507,0.17474 1.31051,0.17474 0.51393,0 0.93021,-0.0503 1.24885,-0.15091 0.32377,-0.0953 0.57046,-0.233 0.74005,-0.41304 0.15932,-0.16945 0.27495,-0.38656 0.3469,-0.65133 0.0719,-0.26476 0.10793,-0.58248 0.10793,-0.95316 v -0.1668 c -0.33405,0.28065 -0.70408,0.50306 -1.11009,0.66721 -0.406,0.16416 -0.85825,0.24624 -1.35676,0.24624 -1.21287,0 -2.14822,-0.37597 -2.80605,-1.12791 -0.65782,-0.75194 -0.98673,-1.89573 -0.98673,-3.43138 0,-0.73606 0.10021,-1.3715 0.30064,-1.90633 0.20044,-0.534827 0.48309,-1.000817 0.84798,-1.397968 0.33919,-0.370674 0.75548,-0.65927 1.24885,-0.865788 0.4985,-0.206519 1.00729,-0.309778 1.52636,-0.309778 0.46767,0 0.89166,0.05825 1.27197,0.174746 0.38544,0.111203 0.73491,0.267415 1.04841,0.468638 l 0.10021,-0.39715 c 0,0 2.30207,-2.366399 3.33949,-1.676939 2.66353,1.770163 -0.64908,9.572329 -0.64908,9.572329 z m -2.87171,-1.90134 0.0965,-3.92883 c 0.004,-0.173488 -0.35461,-0.12179 -0.58588,-0.15886 -0.23127,-0.04236 -0.43941,-0.06354 -0.62442,-0.06354 -0.72978,0 -1.27711,0.21711 -1.642,0.65133 -0.36488,0.42892 -0.76369,1.02994 -0.76369,1.80306 0,0.85785 0.37054,1.45622 0.67889,1.79512 0.3135,0.3389 0.77603,0.50835 1.38761,0.50835 0.27752,0 0.5499,-0.045 0.81714,-0.13503 0.26724,-0.09 0.36972,-0.4716 0.63584,-0.4716 z m 14.18839,2.92599 c -0.33107,0.85733 -0.97415,2.31003 -1.85307,2.04149 -2.08274,-0.63635 -0.93755,-6.46574 -0.93755,-6.46574 -0.0517,-0.35628 -0.0472,-1.48951 0.1474,0.20333 l 0.36885,3.20938 c 0.0748,0.65123 -0.36828,-3.07085 -0.67207,-4.29984 -0.1062,-0.42965 -0.68864,-0.56758 -1.173,-0.46735 -0.45657,0.0945 -0.85718,0.75371 -1.11903,0.8392 -0.25722,0.0839 0.30529,5.03118 0.002,5.21652 -1.37321,0.83936 -0.16968,0.0254 -0.22518,0.087 -0.37993,0.42193 -0.72912,1.42208 -1.22463,1.15754 -3.0978,-1.65382 -0.69161,-10.67341 -1.65874,-13.963357 -0.47805,-1.626227 1.20628,-1.096126 2.42445,0.08252 0.7998,0.773855 0.20572,3.332346 0.20572,3.332346 0.039,0.632155 0.76046,0.39028 1.21272,0.178466 0.4574,-0.211814 1.4478,-0.584259 2.17655,-0.450623 0.59521,0.109146 1.00723,0.413556 1.53144,0.974862 0.52934,0.561306 0.79401,1.400616 0.79401,2.517936 0,0 0.69728,4.00084 6e-5,5.80634 z"
       id="text1"
       aria-label="GothenBurgh"
       sodipodi:nodetypes="ccscscasscscccssccssscssssscscscscscsccsscsscccscccsccscscsccscscscscssccsccssssscccsccssssccscsssccsscccsssscaasscsssccssscccsccsscsccssssscccscsassssccccsssccsccssccsssccssccssccsscscsscscsacccsscscsssaaasasssscsscsssssscccccsccsscsssssccsccccascsscscsscscascssssssssssscaccaa" />
  </g>
</svg>
